<?xml version="1.0" encoding="utf-8"?>
<!-- Generator: Adobe Illustrator 16.2.1, SVG Export Plug-In . SVG Version: 6.00 Build 0)  -->
<!DOCTYPE svg PUBLIC "-//W3C//DTD SVG 1.1//EN" "http://www.w3.org/Graphics/SVG/1.1/DTD/svg11.dtd">
<svg version="1.1" id="Layer_1" xmlns="http://www.w3.org/2000/svg" xmlns:xlink="http://www.w3.org/1999/xlink" x="0px" y="0px"
	 viewBox="326.983 -47.998 300 300" enable-background="new 326.983 -47.998 300 300"
	 xml:space="preserve">
<path fill="none" stroke="#FEBC5B" stroke-width="10" stroke-miterlimit="10" d="M476.954-42.562
	c79.531,0,144.032,64.47,144.032,144.031c0,79.529-64.471,144.029-144.032,144.029c-79.53,0-144.03-64.5-144.03-144.029
	C332.922,21.938,397.392-42.562,476.954-42.562z"/>
<path fill="#FFFFFF" stroke="#FEBC5B" stroke-width="4.4784" stroke-miterlimit="10" d="M414.642,73.943
	c15.611,0,28.272,12.654,28.272,28.271c0,15.613-12.656,28.273-28.272,28.273c-15.614,0-28.273-12.662-28.273-28.273
	C386.368,86.604,399.021,73.943,414.642,73.943z"/>
<path fill="#FFFFFF" stroke="#FEBC5B" stroke-width="4.4784" stroke-miterlimit="10" d="M476.46,73.943
	c15.611,0,28.273,12.654,28.273,28.271c0,15.613-12.655,28.273-28.273,28.273c-15.611,0-28.271-12.66-28.271-28.273
	C448.189,86.604,460.845,73.943,476.46,73.943z"/>
<path fill="#FFFFFF" stroke="#FEBC5B" stroke-width="4.4784" stroke-miterlimit="10" d="M570.526,19.404
	c15.612,0,28.272,12.655,28.272,28.272c0,15.612-12.654,28.273-28.272,28.273c-15.613,0-28.273-12.661-28.273-28.273
	C542.253,32.065,554.908,19.404,570.526,19.404z"/>
<path fill="#FFFFFF" stroke="#FEBC5B" stroke-width="4.4784" stroke-miterlimit="10" d="M570.187,127.212
	c15.612,0,28.273,12.654,28.273,28.273c0,15.612-12.655,28.272-28.273,28.272c-15.61,0-28.271-12.663-28.271-28.272
	C541.916,139.875,554.57,127.212,570.187,127.212z"/>
<path fill="#FFFFFF" stroke="#FEBC5B" stroke-width="4.4784" stroke-miterlimit="10" d="M445.988,127.681
	c15.614,0,28.274,12.654,28.274,28.269c0,15.614-12.656,28.274-28.274,28.274c-15.612,0-28.271-12.662-28.271-28.274
	C417.717,140.342,430.372,127.681,445.988,127.681z"/>
<path fill="#FFFFFF" stroke="#FEBC5B" stroke-width="4.4784" stroke-miterlimit="10" d="M507.809,127.681
	c15.613,0,28.274,12.654,28.274,28.269c0,15.616-12.655,28.274-28.274,28.274c-15.611,0-28.271-12.662-28.271-28.274
	C479.537,140.342,492.192,127.681,507.809,127.681z"/>
<path fill="#FFFFFF" stroke="#FEBC5B" stroke-width="4.4784" stroke-miterlimit="10" d="M383.721,127.681
	c15.612,0,28.271,12.654,28.271,28.269c0,15.616-12.653,28.274-28.271,28.274c-15.612,0-28.273-12.662-28.273-28.274
	C355.447,140.342,368.102,127.681,383.721,127.681z"/>
<path fill="#FFFFFF" stroke="#FEBC5B" stroke-width="4.4784" stroke-miterlimit="10" d="M445.988,20.201
	c15.614,0,28.274,12.656,28.274,28.273c0,15.612-12.656,28.272-28.274,28.272c-15.612,0-28.271-12.661-28.271-28.272
	C417.717,32.863,430.372,20.201,445.988,20.201z"/>
<path fill="#FFFFFF" stroke="#FEBC5B" stroke-width="4.4784" stroke-miterlimit="10" d="M507.809,20.201
	c15.613,0,28.274,12.656,28.274,28.273c0,15.613-12.655,28.272-28.274,28.272c-15.611,0-28.271-12.66-28.271-28.272
	C479.537,32.863,492.192,20.201,507.809,20.201z"/>
<path fill="#FFFFFF" stroke="#FEBC5B" stroke-width="4.4784" stroke-miterlimit="10" d="M383.721,20.201
	c15.612,0,28.271,12.656,28.271,28.274c0,15.612-12.653,28.272-28.271,28.272c-15.612,0-28.273-12.66-28.273-28.272
	S368.102,20.201,383.721,20.201z"/>
<g>
	<g>
		<defs>
			<rect id="SVGID_1_" x="548.513" y="26.79" width="43.737" height="46.333"/>
		</defs>
		<clipPath id="SVGID_2_">
			<use xlink:href="#SVGID_1_"  overflow="visible"/>
		</clipPath>
		<polygon clip-path="url(#SVGID_2_)" fill="#777777" points="548.513,34.461 551.956,63.021 570.334,73.122 588.805,62.884 
			592.25,34.325 570.308,26.79 		"/>
		<polygon clip-path="url(#SVGID_2_)" fill="#F99E52" points="590.075,35.977 570.26,29.219 570.26,70.708 586.866,61.517 		"/>
		<polygon clip-path="url(#SVGID_2_)" fill="#FEBC5B" points="550.96,36.098 553.912,61.639 570.26,70.708 570.26,29.218 		"/>
		<path clip-path="url(#SVGID_2_)" fill="#777777" d="M575.715,51.306l-5.455,2.553h-5.749l-2.702,6.756l-5.025,0.094l13.477-29.982
			L575.715,51.306z M575.188,50.02l-4.893-9.681l-4.011,9.517h3.975L575.188,50.02z"/>
		<polygon clip-path="url(#SVGID_2_)" fill="#434343" points="570.26,30.726 570.296,40.339 574.848,49.863 570.271,49.863 
			570.26,53.851 576.591,53.859 579.549,60.708 584.358,60.798 		"/>
	</g>
</g>
<g>
	
		<namedview  showgrid="false" zoom="0.24896372" objecttolerance="10" cx="116.80866" id="namedview2996" gridtolerance="10" guidetolerance="10" cy="407.66551" pagecolor="#ffffff" fit-margin-top="0" borderopacity="1" fit-margin-left="0" bordercolor="#666666" fit-margin-bottom="0" window-maximized="0" window-height="623" current-layer="svg2" window-y="0" pageshadow="2" window-x="0" fit-margin-right="0" pageopacity="0" window-width="864">
		</namedview>
	<g id="layer1" transform="matrix(15.623041,0,0,15.623041,-3987.6024,-6644.8835)">
		
		<radialGradient id="rect3050_1_" cx="290.6637" cy="436.4059" r="66.6273" gradientTransform="matrix(1 0 0 1 1.525879e-05 0)" gradientUnits="userSpaceOnUse">
			<stop  offset="0.0066" style="stop-color:#FFFFFF"/>
			<stop  offset="0.2325" style="stop-color:#FFE4BE"/>
			<stop  offset="0.4977" style="stop-color:#FEC777"/>
			<stop  offset="0.6215" style="stop-color:#FEBC5B"/>
		</radialGradient>
		<path id="rect3050" fill="#FEBC5B" d="M290.867,434.018h1.707c0.225,0,0.407,0.183,0.407,0.407v1.718
			c0,0.225-0.182,0.407-0.407,0.407h-1.707c-0.225,0-0.408-0.182-0.408-0.407v-1.718C290.46,434.2,290.642,434.018,290.867,434.018z
			"/>
		<g id="text3836" transform="scale(1.0052013,0.99482561)">
			<g id="Bootstrap">
				<rect x="270.582" y="435.449" fill="none" width="39.268" height="6.055"/>
				<path fill="#434343" d="M289.185,438.282h0.129c0.026,0,0.045,0.001,0.057,0.003c0.013,0.002,0.024,0.007,0.034,0.013
					c0.01,0.007,0.018,0.016,0.025,0.027c0.007,0.011,0.01,0.024,0.01,0.038c0,0.015-0.004,0.029-0.012,0.042
					c-0.008,0.013-0.019,0.022-0.033,0.029c0.02,0.006,0.035,0.016,0.045,0.03c0.011,0.014,0.016,0.03,0.016,0.049
					c0,0.015-0.003,0.029-0.01,0.043c-0.007,0.014-0.016,0.025-0.028,0.034c-0.012,0.008-0.026,0.014-0.044,0.015
					c-0.011,0.001-0.037,0.002-0.079,0.002h-0.11V438.282z M289.25,438.336v0.075h0.043c0.025,0,0.041,0,0.047-0.001
					c0.011-0.001,0.02-0.005,0.026-0.012c0.006-0.006,0.01-0.015,0.01-0.025c0-0.01-0.003-0.018-0.008-0.025
					c-0.006-0.006-0.014-0.01-0.025-0.011c-0.006-0.001-0.025-0.001-0.056-0.001H289.25z M289.25,438.466v0.087h0.06
					c0.023,0,0.038-0.001,0.045-0.002c0.01-0.002,0.018-0.006,0.024-0.013c0.006-0.007,0.009-0.016,0.009-0.028
					c0-0.01-0.002-0.018-0.007-0.025c-0.005-0.007-0.011-0.012-0.02-0.015c-0.009-0.003-0.028-0.005-0.058-0.005H289.25z"/>
				<path fill="#434343" d="M289.495,438.487c0-0.021,0.005-0.041,0.015-0.06c0.01-0.019,0.025-0.034,0.043-0.044
					c0.019-0.01,0.039-0.015,0.062-0.015c0.035,0,0.064,0.012,0.087,0.035c0.023,0.023,0.034,0.053,0.034,0.088
					c0,0.036-0.011,0.065-0.034,0.089s-0.051,0.035-0.086,0.035c-0.021,0-0.042-0.005-0.061-0.015
					c-0.019-0.01-0.034-0.024-0.044-0.043C289.5,438.537,289.495,438.514,289.495,438.487z M289.558,438.49
					c0,0.023,0.006,0.041,0.017,0.054c0.011,0.013,0.025,0.019,0.041,0.019c0.016,0,0.03-0.006,0.041-0.019
					c0.011-0.012,0.016-0.031,0.016-0.054c0-0.023-0.005-0.041-0.016-0.053c-0.011-0.012-0.024-0.019-0.041-0.019
					c-0.016,0-0.03,0.006-0.041,0.019C289.564,438.449,289.558,438.467,289.558,438.49z"/>
				<path fill="#434343" d="M289.77,438.487c0-0.021,0.005-0.041,0.015-0.06c0.01-0.019,0.024-0.034,0.043-0.044
					c0.019-0.01,0.039-0.015,0.062-0.015c0.035,0,0.064,0.012,0.087,0.035c0.023,0.023,0.034,0.053,0.034,0.088
					c0,0.036-0.011,0.065-0.034,0.089c-0.023,0.023-0.051,0.035-0.086,0.035c-0.021,0-0.042-0.005-0.061-0.015
					c-0.019-0.01-0.034-0.024-0.044-0.043C289.775,438.537,289.77,438.514,289.77,438.487z M289.834,438.49
					c0,0.023,0.006,0.041,0.017,0.054c0.011,0.013,0.025,0.019,0.041,0.019c0.016,0,0.03-0.006,0.041-0.019
					c0.011-0.012,0.016-0.031,0.016-0.054c0-0.023-0.005-0.041-0.016-0.053c-0.011-0.012-0.024-0.019-0.041-0.019
					c-0.016,0-0.03,0.006-0.041,0.019C289.839,438.449,289.834,438.467,289.834,438.49z"/>
				<path fill="#434343" d="M290.167,438.372v0.05h-0.042v0.095c0,0.019,0,0.031,0.001,0.034c0.001,0.003,0.003,0.006,0.005,0.008
					s0.006,0.003,0.01,0.003c0.006,0,0.014-0.002,0.025-0.006l0.005,0.048c-0.014,0.006-0.031,0.009-0.049,0.009
					c-0.011,0-0.021-0.002-0.03-0.006c-0.009-0.004-0.015-0.009-0.02-0.015c-0.004-0.006-0.007-0.014-0.009-0.024
					c-0.001-0.007-0.002-0.022-0.002-0.044v-0.103h-0.028v-0.05h0.028v-0.047l0.062-0.036v0.083H290.167z"/>
				<path fill="#434343" d="M290.188,438.541l0.062-0.01c0.003,0.012,0.008,0.021,0.016,0.028c0.008,0.006,0.019,0.009,0.034,0.009
					c0.016,0,0.028-0.003,0.036-0.009c0.005-0.004,0.008-0.01,0.008-0.017c0-0.005-0.001-0.009-0.004-0.012
					c-0.003-0.003-0.01-0.006-0.021-0.008c-0.05-0.011-0.082-0.021-0.095-0.03c-0.019-0.013-0.028-0.03-0.028-0.053
					c0-0.02,0.008-0.038,0.024-0.052c0.016-0.014,0.041-0.021,0.074-0.021c0.032,0,0.056,0.005,0.071,0.016
					c0.016,0.011,0.026,0.026,0.032,0.047l-0.058,0.011c-0.002-0.009-0.007-0.016-0.014-0.021c-0.007-0.005-0.017-0.007-0.03-0.007
					c-0.016,0-0.028,0.002-0.035,0.007c-0.005,0.003-0.007,0.007-0.007,0.013c0,0.004,0.002,0.008,0.006,0.011
					c0.006,0.004,0.025,0.01,0.058,0.018c0.033,0.008,0.056,0.017,0.069,0.028c0.013,0.011,0.019,0.027,0.019,0.046
					c0,0.022-0.009,0.04-0.027,0.056c-0.018,0.016-0.044,0.023-0.079,0.023c-0.032,0-0.057-0.007-0.076-0.02
					C290.206,438.581,290.194,438.563,290.188,438.541z"/>
				<path fill="#434343" d="M290.568,438.372v0.05h-0.042v0.095c0,0.019,0,0.031,0.001,0.034c0.001,0.003,0.003,0.006,0.005,0.008
					c0.003,0.002,0.006,0.003,0.01,0.003c0.006,0,0.014-0.002,0.025-0.006l0.005,0.048c-0.014,0.006-0.031,0.009-0.049,0.009
					c-0.011,0-0.021-0.002-0.03-0.006c-0.009-0.004-0.016-0.009-0.02-0.015c-0.004-0.006-0.007-0.014-0.009-0.024
					c-0.001-0.007-0.002-0.022-0.002-0.044v-0.103h-0.028v-0.05h0.028v-0.047l0.062-0.036v0.083H290.568z"/>
				<path fill="#434343" d="M290.67,438.608h-0.062v-0.236h0.057v0.034c0.01-0.016,0.019-0.026,0.027-0.031
					c0.008-0.005,0.017-0.008,0.027-0.008c0.014,0,0.028,0.004,0.041,0.012l-0.019,0.055c-0.01-0.007-0.02-0.01-0.029-0.01
					c-0.009,0-0.016,0.002-0.022,0.007c-0.006,0.005-0.011,0.013-0.014,0.026c-0.003,0.013-0.005,0.039-0.005,0.079V438.608z"/>
				<path fill="#434343" d="M290.832,438.444l-0.056-0.01c0.006-0.023,0.017-0.04,0.033-0.051c0.015-0.011,0.038-0.016,0.069-0.016
					c0.028,0,0.048,0.003,0.062,0.01s0.023,0.015,0.029,0.025c0.005,0.01,0.008,0.029,0.008,0.056l-0.001,0.073
					c0,0.021,0.001,0.036,0.003,0.046c0.002,0.01,0.006,0.02,0.011,0.032h-0.061c-0.002-0.004-0.004-0.01-0.006-0.018
					c-0.001-0.004-0.002-0.006-0.002-0.007c-0.011,0.01-0.022,0.018-0.034,0.023c-0.012,0.005-0.025,0.008-0.039,0.008
					c-0.024,0-0.043-0.007-0.057-0.02c-0.014-0.013-0.021-0.03-0.021-0.05c0-0.013,0.003-0.025,0.009-0.036
					c0.006-0.01,0.015-0.018,0.027-0.024c0.011-0.006,0.028-0.01,0.049-0.015c0.029-0.005,0.049-0.011,0.06-0.015v-0.006
					c0-0.012-0.003-0.021-0.009-0.026c-0.006-0.005-0.017-0.008-0.033-0.008c-0.011,0-0.02,0.002-0.026,0.007
					C290.841,438.425,290.836,438.433,290.832,438.444z M290.915,438.495c-0.008,0.003-0.02,0.006-0.038,0.01
					c-0.017,0.004-0.028,0.007-0.034,0.011c-0.008,0.006-0.012,0.013-0.012,0.022c0,0.009,0.003,0.016,0.01,0.023
					c0.006,0.006,0.015,0.01,0.025,0.01c0.011,0,0.022-0.004,0.032-0.011c0.007-0.006,0.012-0.013,0.015-0.021
					c0.002-0.005,0.002-0.015,0.002-0.03V438.495z"/>
				<path fill="#434343" d="M291.035,438.372h0.058v0.035c0.007-0.012,0.018-0.021,0.03-0.029c0.013-0.007,0.027-0.011,0.042-0.011
					c0.027,0,0.05,0.011,0.069,0.032c0.019,0.021,0.028,0.051,0.028,0.09c0,0.039-0.01,0.07-0.029,0.092
					c-0.019,0.022-0.042,0.033-0.069,0.033c-0.013,0-0.025-0.003-0.035-0.008c-0.011-0.005-0.022-0.014-0.033-0.027v0.119h-0.062
					V438.372z M291.096,438.486c0,0.027,0.005,0.046,0.016,0.059c0.01,0.013,0.023,0.019,0.038,0.019
					c0.014,0,0.026-0.006,0.036-0.017c0.01-0.012,0.014-0.031,0.014-0.057c0-0.025-0.005-0.043-0.015-0.055
					c-0.01-0.012-0.022-0.018-0.037-0.018c-0.015,0-0.028,0.006-0.038,0.018C291.101,438.445,291.096,438.463,291.096,438.486z"/>
			</g>
			<path id="path3841" connector-curvature="0" fill="#434343" d="M290.23,437.168c0.064,0,0.113-0.014,0.146-0.042
				c0.033-0.028,0.05-0.07,0.05-0.125c0-0.054-0.017-0.095-0.05-0.124c-0.033-0.029-0.082-0.043-0.146-0.043h-0.225v0.334H290.23
				 M290.244,437.858c0.082,0,0.143-0.017,0.184-0.052c0.042-0.035,0.062-0.087,0.062-0.156c0-0.068-0.02-0.12-0.061-0.153
				c-0.041-0.035-0.102-0.052-0.185-0.052h-0.239v0.413H290.244 M290.622,437.291c0.087,0.025,0.155,0.072,0.203,0.14
				c0.048,0.068,0.072,0.152,0.072,0.252c0,0.152-0.051,0.265-0.154,0.34c-0.103,0.075-0.259,0.112-0.469,0.112h-0.675v-1.577h0.611
				c0.219,0,0.378,0.033,0.475,0.099c0.099,0.066,0.148,0.172,0.148,0.318c0,0.077-0.018,0.142-0.054,0.196
				C290.743,437.225,290.69,437.265,290.622,437.291"/>
		</g>
	</g>
</g>
<g id="CSS3" transform="translate(95.428571,270.18109)">
	<polygon id="polygon2989" fill="#F99E52" points="350.998,-196.829 337.504,-200.575 334.495,-234.301 367.537,-234.301 
		364.528,-200.581 	"/>
	<polygon id="polygon2991" fill="#FEBC5B" points="361.951,-202.727 364.524,-231.544 351.018,-231.544 351.018,-199.696 	"/>
	<polygon id="polygon2993" fill="#434343" points="341.39,-219.036 341.761,-214.899 351.018,-214.899 351.018,-219.036 	"/>
	<polygon id="polygon2995" fill="#434343" points="340.643,-227.408 341.023,-223.271 351.018,-223.271 351.018,-227.408 
		351.004,-227.408 	"/>
	<polygon id="polygon2997" fill="#434343" points="351.018,-208.293 351,-208.287 346.392,-209.532 346.097,-212.831 
		343.86,-212.831 341.946,-212.831 342.526,-206.336 350.998,-203.984 351.018,-203.989 	"/>
	<path id="path2999" connector-curvature="0" fill="#434343" d="M342.272-243.468h5.012v2.095h-2.914v2.095h2.914v2.095
		h-5.012V-243.468z"/>
	<path id="path3001" connector-curvature="0" fill="#434343" d="M348.285-243.468h5.009v1.823h-2.913v0.364h2.913v4.19
		h-5.009v-1.914h2.916v-0.364h-2.916V-243.468z"/>
	<path id="path3003" connector-curvature="0" fill="#434343" d="M354.297-243.468h5.01v1.823h-2.915v0.364h2.915v4.19
		h-5.01v-1.914h2.915v-0.364h-2.915V-243.468z"/>
	<polygon id="polygon3005" fill="#777777" points="360.618,-219.036 361.367,-227.408 351.004,-227.408 351.004,-223.271 
		356.832,-223.271 356.454,-219.036 351.004,-219.036 351.004,-214.899 356.096,-214.899 355.617,-209.533 351.004,-208.288 
		351.004,-203.986 359.484,-206.336 359.544,-207.035 360.517,-217.925 	"/>
</g>
<g id="HTML5" transform="translate(524,270.18109)">
	<polygon id="polygon3028" fill="#F99E52" points="-123.332,-234.138 -126.35,-200.315 -139.922,-196.554 -153.456,-200.309 
		-156.472,-234.138 	"/>
	<polygon id="polygon3030" fill="#FEBC5B" points="-139.902,-199.429 -128.936,-202.469 -126.355,-231.372 -139.902,-231.372 	"/>
	<polygon id="polygon3032" fill="#434343" points="-145.771,-223.074 -139.902,-223.074 -139.902,-227.223 -139.918,-227.223 
		-150.304,-227.223 -150.206,-226.111 -149.186,-214.677 -139.902,-214.677 -139.902,-218.825 -145.392,-218.825 	"/>
	<polygon id="polygon3034" fill="#434343" points="-144.837,-212.603 -147.083,-212.603 -149,-212.603 -148.418,-206.089 
		-139.922,-203.729 -139.902,-203.734 -139.902,-208.051 -139.921,-208.046 -144.54,-209.293 	"/>
	<path id="path3036" connector-curvature="0" fill="#434343" d="M-153.388-243.331h2.107v2.083h1.929v-2.083h2.107v6.309
		h-2.107v-2.112h-1.929v2.112h-2.107V-243.331L-153.388-243.331z"/>
	<path id="path3038" connector-curvature="0" fill="#434343" d="M-144.471-241.239h-1.855v-2.092h5.822v2.092h-1.859v4.216
		h-2.107V-241.239L-144.471-241.239z"/>
	<path id="path3040" connector-curvature="0" fill="#434343" d="M-139.582-243.331h2.2l1.352,2.217l1.352-2.217h2.199
		v6.309h-2.1v-3.126l-1.451,2.242h-0.036l-1.453-2.242v3.126h-2.062L-139.582-243.331L-139.582-243.331z"/>
	<path id="path3042" connector-curvature="0" fill="#434343" d="M-131.429-243.331h2.107v4.223h2.967v2.085h-5.074
		V-243.331z"/>
	<polygon id="polygon3044" fill="#777777" points="-139.918,-214.677 -134.806,-214.677 -135.289,-209.296 -139.918,-208.048 
		-139.918,-203.731 -131.412,-206.089 -131.349,-206.789 -130.373,-217.712 -130.272,-218.825 -131.391,-218.825 -139.918,-218.825 
			"/>
	<polygon id="polygon3046" fill="#777777" points="-139.918,-223.084 -139.918,-223.074 -129.907,-223.074 -129.907,-223.074 
		-129.894,-223.074 -129.811,-224.007 -129.622,-226.111 -129.523,-227.223 -139.918,-227.223 -139.918,-224.646 	"/>
</g>
<g>
	<path fill="#434343" d="M388.511,150.98c-1.103,0-1.922,0.539-1.922,1.842c0,0.984,0.538,1.665,1.864,1.665
		c1.121,0,1.882-0.66,1.882-1.703C390.335,151.601,389.654,150.98,388.511,150.98L388.511,150.98z M386.306,160.182
		c-0.261,0.319-0.521,0.662-0.521,1.064c0,0.802,1.021,1.042,2.426,1.042c1.162,0,2.747-0.082,2.747-1.163
		c0-0.643-0.762-0.683-1.727-0.743L386.306,160.182L386.306,160.182z M392.24,151.04c0.359,0.46,0.743,1.104,0.743,2.024
		c0,2.226-1.745,3.528-4.271,3.528c-0.642,0-1.223-0.081-1.585-0.177l-0.661,1.06l1.964,0.12c3.47,0.221,5.515,0.321,5.515,2.988
		c0,2.307-2.025,3.608-5.515,3.608c-3.628,0-5.012-0.922-5.012-2.507c0-0.904,0.4-1.383,1.104-2.044
		c-0.663-0.282-0.882-0.782-0.882-1.324c0-0.44,0.219-0.842,0.58-1.222c0.361-0.382,0.763-0.764,1.243-1.203
		c-0.982-0.481-1.725-1.525-1.725-3.007c0-2.307,1.526-3.891,4.591-3.891c0.864,0,1.383,0.081,1.846,0.201h3.912v1.704
		L392.24,151.04"/>
	<path fill="#434343" d="M397.615,147.395c-1.143,0-1.806-0.66-1.806-1.802c0-1.146,0.663-1.767,1.806-1.767
		c1.163,0,1.823,0.622,1.823,1.767C399.439,146.734,398.779,147.395,397.615,147.395z M395.027,159.444v-1.582l1.025-0.141
		c0.279-0.039,0.32-0.101,0.32-0.4v-5.896c0-0.219-0.06-0.36-0.261-0.42l-1.085-0.383l0.222-1.622h4.152v8.32
		c0,0.318,0.019,0.361,0.32,0.4l1.023,0.141v1.582H395.027"/>
	<path fill="#434343" d="M408.673,158.667c-0.864,0.42-2.125,0.802-3.27,0.802c-2.386,0-3.287-0.961-3.287-3.229v-5.252
		c0-0.121,0-0.199-0.161-0.199h-1.405v-1.785c1.768-0.202,2.468-1.085,2.688-3.27h1.905v2.85c0,0.139,0,0.2,0.162,0.2h2.825v2.004
		h-2.987v4.791c0,1.183,0.281,1.646,1.363,1.646c0.562,0,1.144-0.143,1.624-0.321L408.673,158.667"/>
	<path fill="#FEBC5B" d="M378.961,153.405l-9.168-9.165c-0.527-0.529-1.384-0.529-1.912,0l-1.902,1.902l2.413,2.415
		c0.562-0.188,1.206-0.062,1.653,0.386c0.449,0.45,0.576,1.099,0.383,1.662l2.325,2.328c0.564-0.195,1.215-0.068,1.664,0.381
		c0.627,0.629,0.627,1.647,0,2.276c-0.632,0.628-1.647,0.628-2.277,0c-0.473-0.472-0.588-1.17-0.35-1.75l-2.169-2.173v5.715
		c0.151,0.075,0.295,0.175,0.424,0.302c0.629,0.63,0.629,1.646,0,2.277c-0.629,0.629-1.647,0.629-2.274,0
		c-0.629-0.632-0.629-1.647,0-2.277c0.153-0.152,0.335-0.272,0.525-0.351v-5.764c-0.19-0.081-0.372-0.195-0.526-0.354
		c-0.475-0.473-0.592-1.173-0.348-1.759l-2.38-2.381l-6.286,6.288c-0.528,0.528-0.528,1.385,0,1.91l9.168,9.171
		c0.527,0.526,1.383,0.526,1.913,0l9.124-9.126c0.529-0.528,0.529-1.384,0-1.912"/>
</g>
<g>
	<g id="g16">
		<path id="path30" connector-curvature="0" fill="#FEBC5B" d="M414.835,127.256c-0.679,0-1.352-0.182-1.942-0.521
			l-6.176-3.651c-0.919-0.517-0.47-0.696-0.166-0.805c1.229-0.427,1.481-0.525,2.789-1.27c0.14-0.081,0.32-0.052,0.463,0.034
			l4.743,2.817c0.174,0.092,0.415,0.092,0.572,0l18.491-10.674c0.177-0.102,0.283-0.298,0.283-0.499V91.344
			c0-0.209-0.106-0.406-0.283-0.509l-18.486-10.667c-0.172-0.101-0.398-0.101-0.569,0l-18.48,10.671
			c-0.182,0.099-0.293,0.301-0.293,0.505v21.343c0,0.201,0.111,0.391,0.288,0.497l5.068,2.923c2.747,1.375,4.433-0.246,4.433-1.872
			V93.164c0-0.297,0.234-0.534,0.532-0.534h2.349c0.294,0,0.533,0.236,0.533,0.534v21.071c0,3.667-1.997,5.77-5.478,5.77
			c-1.065,0-1.91,0-4.259-1.156l-4.848-2.796c-1.198-0.688-1.938-1.982-1.938-3.371V91.344c0-1.386,0.74-2.684,1.938-3.37
			l18.493-10.687c1.173-0.667,2.725-0.667,3.892,0l18.486,10.687c1.199,0.691,1.943,1.983,1.943,3.37v21.343
			c0,1.383-0.744,2.671-1.943,3.366l-18.486,10.683C416.19,127.074,415.522,127.256,414.835,127.256"/>
		<path id="path32" connector-curvature="0" fill="#FEBC5B" d="M420.546,112.545c-8.098,0-9.791-3.71-9.791-6.829
			c0-0.295,0.24-0.529,0.533-0.529h2.393c0.27,0,0.488,0.19,0.533,0.453c0.358,2.434,1.44,3.659,6.332,3.659
			c3.896,0,5.554-0.877,5.554-2.944c0-1.192-0.471-2.077-6.524-2.668c-5.062-0.501-8.194-1.62-8.194-5.668
			c0-3.729,3.15-5.957,8.42-5.957c5.928,0,8.854,2.055,9.23,6.468c0.014,0.152-0.041,0.298-0.14,0.411
			c-0.104,0.109-0.249,0.172-0.397,0.172h-2.4c-0.243,0-0.465-0.177-0.52-0.417c-0.573-2.562-1.972-3.381-5.773-3.381
			c-4.249,0-4.747,1.481-4.747,2.591c0,1.344,0.584,1.737,6.325,2.499c5.688,0.748,8.388,1.813,8.388,5.807
			C429.767,110.241,426.406,112.545,420.546,112.545"/>
		<path id="path22" connector-curvature="0" fill="#434343" d="M408.563,87.864c0-0.084-0.045-0.16-0.114-0.201
			l-1.916-1.103c-0.03-0.018-0.067-0.028-0.105-0.029c-0.002,0-0.017,0-0.02,0c-0.036,0.001-0.071,0.011-0.104,0.029l-1.912,1.103
			c-0.072,0.041-0.117,0.117-0.117,0.201l0.005,2.965c0,0.04,0.021,0.079,0.057,0.1c0.033,0.021,0.08,0.021,0.113,0l1.138-0.652
			c0.073-0.042,0.117-0.118,0.117-0.2V88.69c0-0.082,0.043-0.159,0.115-0.199l0.484-0.279c0.035-0.021,0.074-0.031,0.116-0.031
			c0.039,0,0.079,0.01,0.113,0.031l0.482,0.279c0.071,0.04,0.118,0.117,0.118,0.199v1.386c0,0.083,0.044,0.158,0.115,0.2
			l1.137,0.652c0.035,0.021,0.082,0.021,0.116,0c0.034-0.021,0.058-0.06,0.058-0.1L408.563,87.864"/>
		<path id="path24" connector-curvature="0" fill="#434343" d="M418.602,89.406c0,0.021-0.011,0.04-0.027,0.052
			l-0.658,0.378c-0.018,0.009-0.038,0.009-0.056,0l-0.656-0.378c-0.021-0.012-0.031-0.031-0.031-0.052v-0.758
			c0-0.022,0.01-0.041,0.031-0.05l0.656-0.379c0.018-0.012,0.038-0.012,0.056,0l0.658,0.379c0.017,0.009,0.027,0.028,0.027,0.05
			V89.406z M418.781,83.787c-0.036-0.021-0.081-0.02-0.116,0.001c-0.033,0.021-0.059,0.059-0.059,0.1v2.937
			c0,0.029-0.016,0.056-0.037,0.07c-0.025,0.014-0.059,0.014-0.082,0l-0.479-0.275c-0.071-0.042-0.159-0.042-0.229,0l-1.916,1.103
			c-0.073,0.043-0.116,0.12-0.116,0.203v2.208c0,0.083,0.043,0.159,0.116,0.2l1.916,1.106c0.07,0.041,0.158,0.041,0.229,0
			l1.915-1.106c0.072-0.041,0.115-0.117,0.115-0.2v-5.509c0-0.083-0.045-0.161-0.12-0.201L418.781,83.787"/>
		<path id="path26" connector-curvature="0" fill="#434343" d="M425.629,88.628c0.072-0.042,0.112-0.118,0.112-0.199
			v-0.537c0-0.082-0.04-0.157-0.112-0.199l-1.902-1.105c-0.071-0.041-0.159-0.041-0.231,0l-1.914,1.105
			c-0.071,0.042-0.114,0.118-0.114,0.2v2.209c0,0.083,0.043,0.159,0.115,0.201l1.901,1.083c0.071,0.04,0.158,0.04,0.227,0.002
			l1.152-0.641c0.036-0.02,0.058-0.059,0.058-0.099c0-0.042-0.021-0.081-0.058-0.102l-1.927-1.106
			c-0.034-0.021-0.059-0.059-0.059-0.101v-0.692c0-0.042,0.024-0.08,0.059-0.1l0.601-0.345c0.036-0.02,0.078-0.02,0.116,0
			l0.601,0.345c0.034,0.021,0.056,0.059,0.056,0.1v0.545c0,0.042,0.022,0.079,0.058,0.101c0.035,0.021,0.081,0.02,0.115-0.001
			L425.629,88.628"/>
		<path id="path28" connector-curvature="0" fill="#FEBC5B" d="M412.043,86.577c0.071-0.042,0.16-0.042,0.23,0l1.912,1.103
			c0.073,0.041,0.121,0.12,0.121,0.202v2.211c0,0.081-0.048,0.156-0.118,0.198l-1.915,1.107c-0.07,0.042-0.159,0.042-0.23,0
			l-1.914-1.107c-0.071-0.042-0.116-0.117-0.116-0.198V87.88c0-0.081,0.045-0.159,0.116-0.2L412.043,86.577"/>
		<path id="path38" connector-curvature="0" fill="#FEBC5B" d="M423.582,88.525c0.015-0.01,0.031-0.01,0.045,0l0.367,0.211
			c0.014,0.007,0.021,0.022,0.021,0.039v0.423c0,0.017-0.008,0.031-0.021,0.038l-0.367,0.213c-0.014,0.008-0.03,0.008-0.045,0
			l-0.366-0.213c-0.014-0.007-0.023-0.021-0.023-0.038v-0.423c0-0.016,0.007-0.032,0.023-0.039L423.582,88.525"/>
		<path id="path34" connector-curvature="0" fill="#FEBC5B" d="M431.07,110.568v0.192h-0.539v1.405h-0.218v-1.405h-0.537
			v-0.192H431.07"/>
		<path id="path36" connector-curvature="0" fill="#FEBC5B" d="M431.263,110.568h0.309l0.458,1.349l0.455-1.349h0.311
			v1.597h-0.206v-0.942c0-0.035,0-0.085,0.002-0.162c0-0.076,0.002-0.159,0.002-0.244l-0.454,1.347h-0.217l-0.46-1.347v0.049
			c0,0.04,0,0.097,0.003,0.18c0.002,0.078,0.003,0.138,0.003,0.175v0.943h-0.205V110.568"/>
	</g>
</g>
<g>
	<g>
		<defs>
			<rect id="SVGID_3_" x="451.22" y="76.258" width="50.167" height="48.011"/>
		</defs>
		<clipPath id="SVGID_4_">
			<use xlink:href="#SVGID_3_"  overflow="visible"/>
		</clipPath>
		<g clip-path="url(#SVGID_4_)">
			<defs>
				<rect id="SVGID_5_" x="451.22" y="75.672" width="50.167" height="50.165"/>
			</defs>
			<clipPath id="SVGID_6_">
				<use xlink:href="#SVGID_5_"  overflow="visible"/>
			</clipPath>
			<g clip-path="url(#SVGID_6_)">
				<defs>
					<path id="SVGID_7_" d="M476.715,115.665c-0.336,1.947-0.662,2.677-0.662,2.677s0.272,0.809,0.467,1.766
						c0.277,1.352,0.284,3.804,0.284,3.804l1.404,0.358c0,0-0.102-4.185,0.127-5.101c0.104-0.427,0.697-1.315,0.697-1.315
						s-0.399-0.174-0.716-0.573c-0.217-0.27-0.601-1.193-0.72-1.534c-0.201-0.574-0.461-3.685-0.461-3.685
						S477.052,113.716,476.715,115.665"/>
				</defs>
				<clipPath id="SVGID_8_">
					<use xlink:href="#SVGID_7_"  overflow="visible"/>
				</clipPath>
				
					<linearGradient id="SVGID_9_" gradientUnits="userSpaceOnUse" x1="1.6648" y1="301.7202" x2="1.7326" y2="301.7202" gradientTransform="matrix(74.123 28.4532 28.4532 -74.123 -8233.1807 22434.1895)">
					<stop  offset="0" style="stop-color:#ADAB8C"/>
					<stop  offset="0.1122" style="stop-color:#ADAB8C"/>
					<stop  offset="0.3092" style="stop-color:#BBB99E"/>
					<stop  offset="0.7025" style="stop-color:#E0DDCD"/>
					<stop  offset="0.852" style="stop-color:#EFECE0"/>
					<stop  offset="1" style="stop-color:#EFECE0"/>
				</linearGradient>
				<polygon clip-path="url(#SVGID_8_)" fill="url(#SVGID_9_)" points="476.438,111.063 483.119,113.628 478.65,125.267 
					471.968,122.702 				"/>
			</g>
			<g clip-path="url(#SVGID_6_)">
				<defs>
					<path id="SVGID_10_" d="M476.867,76.91c0.062,0.358,0.187,1.107,0.247,2.201c0.116,2.191,0.143,5.644,0.255,9.562
						c0.105,3.939,0.066,8.387,0.116,12.491c0.027,2.378,0.027,4.704-0.068,6.72c-0.078,1.643-0.201,3.045-0.221,4.281
						c-0.028,1.931,0.294,3.155,0.368,3.488c0.464,2.048,1.121,2.417,1.218,2.368c0.537-0.258,1.475-1.018,3.069-2.708
						c1.635-1.73,3.317-3.958,4.74-8.157c0.419-1.236,0.767-2.747,0.997-4.333c0.238-1.625,0.146-6.932-1.014-10.306
						c-0.338-0.978-1.021-3.052-2.166-5.095c-1.455-2.588-3.232-4.125-4.622-5.556c-1.942-1.998-2.885-5.068-2.954-5.201
						C476.833,76.665,476.84,76.751,476.867,76.91 M476.833,76.665L476.833,76.665"/>
				</defs>
				<clipPath id="SVGID_11_">
					<use xlink:href="#SVGID_10_"  overflow="visible"/>
				</clipPath>
				
					<radialGradient id="SVGID_12_" cx="0.7834" cy="300.2271" r="0.0675" gradientTransform="matrix(49.6789 -206.4193 -206.4193 -49.6789 62412.5938 15192.918)" gradientUnits="userSpaceOnUse">
					<stop  offset="0" style="stop-color:#C28950"/>
					<stop  offset="0.1647" style="stop-color:#C28950"/>
					<stop  offset="0.4517" style="stop-color:#D59657"/>
					<stop  offset="0.9911" style="stop-color:#F4AB64"/>
					<stop  offset="1" style="stop-color:#F4AB64"/>
				</radialGradient>
				<linearGradient id="SVGID_13_" gradientUnits="userSpaceOnUse" x1="467.0803" y1="97.3677" x2="497.5793" y2="97.3677">
					<stop  offset="0" style="stop-color:#434343"/>
					<stop  offset="0.4107" style="stop-color:#95784E"/>
					<stop  offset="0.8146" style="stop-color:#E1A957"/>
					<stop  offset="1" style="stop-color:#FEBC5B"/>
				</linearGradient>
				
					<polygon clip-path="url(#SVGID_11_)" fill="url(#SVGID_12_)" stroke="url(#SVGID_13_)" stroke-width="0.5532" stroke-miterlimit="10" points="
					467.413,115.803 477.435,74.164 497.246,78.933 487.225,120.571 				"/>
			</g>
			<g clip-path="url(#SVGID_6_)">
				<defs>
					<rect id="SVGID_14_" x="451.22" y="75.672" width="50.167" height="50.165"/>
				</defs>
				<clipPath id="SVGID_15_">
					<use xlink:href="#SVGID_14_"  overflow="visible"/>
				</clipPath>
				<defs>
					<filter id="Adobe_OpacityMaskFilter" filterUnits="userSpaceOnUse" x="476.833" y="76.665" width="10.862" height="41.359">
						<feColorMatrix  type="matrix" values="1 0 0 0 0  0 1 0 0 0  0 0 1 0 0  0 0 0 1 0"/>
					</filter>
				</defs>
				<mask maskUnits="userSpaceOnUse" x="476.833" y="76.665" width="10.862" height="41.359" id="SVGID_16_">
					<g filter="url(#Adobe_OpacityMaskFilter)">
						
							<linearGradient id="SVGID_17_" gradientUnits="userSpaceOnUse" x1="1.1091" y1="299.1245" x2="1.1769" y2="299.1245" gradientTransform="matrix(161.625 0 0 -161.625 297.5551 48446.8633)">
							<stop  offset="0" style="stop-color:#1A1A1A"/>
							<stop  offset="0.0366" style="stop-color:#474747"/>
							<stop  offset="0.0769" style="stop-color:#727272"/>
							<stop  offset="0.1206" style="stop-color:#989898"/>
							<stop  offset="0.1669" style="stop-color:#B8B8B8"/>
							<stop  offset="0.2168" style="stop-color:#D2D2D2"/>
							<stop  offset="0.2717" style="stop-color:#E6E6E6"/>
							<stop  offset="0.3342" style="stop-color:#F4F4F4"/>
							<stop  offset="0.4105" style="stop-color:#FDFDFD"/>
							<stop  offset="0.5411" style="stop-color:#FFFFFF"/>
							<stop  offset="0.6034" style="stop-color:#FBFBFB"/>
							<stop  offset="0.6642" style="stop-color:#EFEFEF"/>
							<stop  offset="0.7246" style="stop-color:#DCDCDC"/>
							<stop  offset="0.7846" style="stop-color:#C0C0C0"/>
							<stop  offset="0.8444" style="stop-color:#9C9C9C"/>
							<stop  offset="0.9041" style="stop-color:#717171"/>
							<stop  offset="0.9625" style="stop-color:#3E3E3E"/>
							<stop  offset="1" style="stop-color:#1A1A1A"/>
						</linearGradient>
						<rect x="451.22" y="75.672" clip-path="url(#SVGID_15_)" fill="url(#SVGID_17_)" width="50.167" height="50.165"/>
					</g>
				</mask>
				
					<linearGradient id="SVGID_18_" gradientUnits="userSpaceOnUse" x1="1.1086" y1="299.146" x2="1.1765" y2="299.146" gradientTransform="matrix(161.625 0 0 -161.625 297.5551 48446.8633)">
					<stop  offset="0" style="stop-color:#C28950"/>
					<stop  offset="0.1094" style="stop-color:#CD9155"/>
					<stop  offset="0.2685" style="stop-color:#D69758"/>
					<stop  offset="0.5411" style="stop-color:#D89959"/>
					<stop  offset="0.9939" style="stop-color:#D89959"/>
					<stop  offset="1" style="stop-color:#D89959"/>
				</linearGradient>
				<path clip-path="url(#SVGID_15_)" mask="url(#SVGID_16_)" fill="url(#SVGID_18_)" d="M476.833,76.665L476.833,76.665
					c0.068,0.133,1.012,3.203,2.954,5.201c1.39,1.43,3.167,2.967,4.622,5.556c1.145,2.043,1.828,4.117,2.166,5.095
					c0.839,2.448,1.12,5.912,1.12,8.251c0,0.885-0.041,1.609-0.106,2.055c-0.23,1.586-0.578,3.097-0.997,4.333
					c-1.423,4.199-3.105,6.427-4.74,8.157c-1.595,1.69-2.532,2.45-3.069,2.708c-0.005,0.003-0.013,0.003-0.021,0.003
					c-0.146,0-0.759-0.434-1.197-2.372c-0.07-0.317-0.369-1.454-0.369-3.241c0-0.081,0-0.162,0.001-0.247
					c0.02-1.235,0.143-2.638,0.221-4.281c0.063-1.305,0.085-2.738,0.085-4.23c0-0.815-0.005-1.65-0.017-2.49
					c-0.05-4.104-0.011-8.552-0.116-12.491c-0.112-3.918-0.139-7.372-0.255-9.562c-0.061-1.094-0.185-1.843-0.247-2.201
					C476.84,76.751,476.833,76.665,476.833,76.665L476.833,76.665L476.833,76.665c0,0,0.007,0.086,0.034,0.245
					c0.062,0.358,0.187,1.107,0.247,2.201c0.116,2.191,0.143,5.644,0.255,9.562c0.105,3.939,0.066,8.387,0.116,12.491
					c0.012,0.84,0.017,1.674,0.017,2.49c0,1.492-0.021,2.925-0.085,4.23c-0.078,1.643-0.201,3.045-0.221,4.281
					c-0.001,0.085-0.001,0.166-0.001,0.247c0,1.787,0.299,2.924,0.369,3.241c0.438,1.938,1.052,2.372,1.197,2.372
					c0.008,0,0.016,0,0.021-0.003c0.537-0.258,1.475-1.018,3.069-2.708c1.635-1.73,3.317-3.958,4.74-8.157
					c0.419-1.236,0.767-2.747,0.997-4.333c0.065-0.446,0.106-1.17,0.106-2.055c0-2.339-0.281-5.803-1.12-8.251
					c-0.338-0.978-1.021-3.052-2.166-5.095c-1.455-2.588-3.232-4.126-4.622-5.556C477.845,79.868,476.902,76.798,476.833,76.665
					L476.833,76.665z"/>
			</g>
			<g clip-path="url(#SVGID_6_)">
				<defs>
					<path id="SVGID_19_" d="M476.13,79.418c-0.854,0.732-2.004,1.713-3.099,2.991c-1.153,1.344-2.261,3.009-3.194,4.694
						c-1.948,3.521-3.112,8.258-3.317,11.236c-0.557,8.178,2.167,14.759,9.828,20.818c0.145,0.116,0.868-5.45,0.868-5.45
						s0.363-6.214,0.358-6.562c-0.067-5.118-0.127-12.145-0.115-18.146c0.007-3.815,0.106-7.019-0.076-9.095
						c-0.085-0.982-0.535-2.9-0.552-3.263C476.835,76.862,476.84,78.808,476.13,79.418 M476.83,76.62c0,0.006,0,0.013,0.001,0.021
						C476.83,76.627,476.83,76.62,476.83,76.62C476.83,76.62,476.83,76.62,476.83,76.62"/>
				</defs>
				<clipPath id="SVGID_20_">
					<use xlink:href="#SVGID_19_"  overflow="visible"/>
				</clipPath>
				
					<radialGradient id="SVGID_21_" cx="0.5339" cy="300.1079" r="0.0675" gradientTransform="matrix(3.8921 -329.0829 -329.0829 -3.8921 99232.8047 1457.624)" gradientUnits="userSpaceOnUse">
					<stop  offset="0" style="stop-color:#D09356"/>
					<stop  offset="0.043" style="stop-color:#D09356"/>
					<stop  offset="0.1078" style="stop-color:#D69959"/>
					<stop  offset="0.3949" style="stop-color:#EAB065"/>
					<stop  offset="0.6676" style="stop-color:#F6BD6D"/>
					<stop  offset="0.9087" style="stop-color:#FAC26F"/>
					<stop  offset="1" style="stop-color:#FAC26F"/>
				</radialGradient>
				<linearGradient id="SVGID_22_" gradientUnits="userSpaceOnUse" x1="465.1799" y1="97.9458" x2="478.3635" y2="97.9458">
					<stop  offset="0" style="stop-color:#434343"/>
					<stop  offset="0.4107" style="stop-color:#95784E"/>
					<stop  offset="0.8146" style="stop-color:#E1A957"/>
					<stop  offset="1" style="stop-color:#FEBC5B"/>
				</linearGradient>
				
					<polygon clip-path="url(#SVGID_20_)" fill="url(#SVGID_21_)" stroke="url(#SVGID_22_)" stroke-width="0.5532" stroke-miterlimit="10" points="
					465.459,119.266 465.964,76.482 478.084,76.626 477.578,119.41 				"/>
			</g>
			<g clip-path="url(#SVGID_6_)">
				<defs>
					<rect id="SVGID_23_" x="451.22" y="75.672" width="50.167" height="50.165"/>
				</defs>
				<clipPath id="SVGID_24_">
					<use xlink:href="#SVGID_23_"  overflow="visible"/>
				</clipPath>
				<defs>
					<filter id="Adobe_OpacityMaskFilter_1_" filterUnits="userSpaceOnUse" x="466.414" y="76.585" width="11.194" height="42.608">
						<feColorMatrix  type="matrix" values="1 0 0 0 0  0 1 0 0 0  0 0 1 0 0  0 0 0 1 0"/>
					</filter>
				</defs>
				<mask maskUnits="userSpaceOnUse" x="466.414" y="76.585" width="11.194" height="42.608" id="SVGID_25_">
					<g filter="url(#Adobe_OpacityMaskFilter_1_)">
						
							<linearGradient id="SVGID_26_" gradientUnits="userSpaceOnUse" x1="1.9534" y1="299.2183" x2="2.0211" y2="299.2183" gradientTransform="matrix(166.3291 0 0 -166.3291 141.4565 49869.4375)">
							<stop  offset="0" style="stop-color:#333333"/>
							<stop  offset="0.2196" style="stop-color:#969696"/>
							<stop  offset="0.4013" style="stop-color:#E1E1E1"/>
							<stop  offset="0.4847" style="stop-color:#FFFFFF"/>
							<stop  offset="0.5371" style="stop-color:#F9F9F9"/>
							<stop  offset="0.6056" style="stop-color:#E9E9E9"/>
							<stop  offset="0.6828" style="stop-color:#CECECE"/>
							<stop  offset="0.7665" style="stop-color:#A8A8A8"/>
							<stop  offset="0.8555" style="stop-color:#787878"/>
							<stop  offset="0.9475" style="stop-color:#3E3E3E"/>
							<stop  offset="1" style="stop-color:#1A1A1A"/>
						</linearGradient>
						<rect x="451.22" y="75.672" clip-path="url(#SVGID_24_)" fill="url(#SVGID_26_)" width="50.167" height="50.165"/>
					</g>
				</mask>
				
					<linearGradient id="SVGID_27_" gradientUnits="userSpaceOnUse" x1="1.9534" y1="299.2349" x2="2.0211" y2="299.2349" gradientTransform="matrix(166.329 0 0 -166.329 141.4566 49869.2852)">
					<stop  offset="0" style="stop-color:#FDBC59"/>
					<stop  offset="0.4847" style="stop-color:#FDBC59"/>
					<stop  offset="0.647" style="stop-color:#F7B759"/>
					<stop  offset="0.8581" style="stop-color:#E7A759"/>
					<stop  offset="1" style="stop-color:#D89959"/>
				</linearGradient>
				<path clip-path="url(#SVGID_24_)" mask="url(#SVGID_25_)" fill="url(#SVGID_27_)" d="M476.83,76.62h-0.033v-0.002v-0.001v-0.002
					c0.009,0,0-0.006,0.033-0.029c0.032,0.031,0.022,0.026,0.034,0.029c0,0.01,0,0.037,0,0.1c-0.003,0.427-0.037,2.141-0.716,2.729
					c-0.854,0.733-1.996,1.712-3.091,2.987c-1.155,1.342-2.26,3.006-3.189,4.688c-1.948,3.517-3.113,8.25-3.314,11.224
					c-0.047,0.679-0.07,1.349-0.07,2.005c0.001,7.251,2.868,13.232,9.887,18.782l-0.017,0.023v-0.028
					c0.006,0,0.014,0.003,0.017,0.005l-0.017,0.023v-0.028v0.009l-0.014-0.008l0.014-0.001v0.009l-0.014-0.008
					c0.174-0.297,0.84-5.418,0.843-5.422l0.033,0.004l-0.033-0.002c0-0.005,0.358-6.136,0.358-6.554v-0.007l0,0l0,0
					c-0.062-4.757-0.118-11.162-0.118-16.859c0-0.433,0.001-0.863,0.001-1.287c0.005-2.03,0.034-3.887,0.034-5.493
					c0-1.412-0.023-2.63-0.107-3.599c-0.089-0.999-0.553-2.97-0.554-3.287H476.83h0.034c-0.003,0.294,0.466,2.277,0.553,3.281
					c0.085,0.973,0.109,2.191,0.109,3.604c0,1.607-0.029,3.464-0.032,5.493c0,0.424,0,0.854,0,1.287
					c0,5.698,0.051,12.102,0.114,16.859l0,0l0,0v0.007c0,0.425-0.358,6.558-0.358,6.559l0,0v0.001
					c-0.02,0.014-0.669,5.42-0.896,5.481c-0.011,0-0.019-0.004-0.026-0.01c-7.029-5.557-9.913-11.564-9.913-18.835
					c0-0.657,0.026-1.329,0.072-2.01c0.203-2.984,1.369-7.726,3.32-11.253c0.934-1.687,2.042-3.353,3.198-4.7
					c1.1-1.279,2.246-2.26,3.101-2.993c0.641-0.543,0.696-2.259,0.692-2.678c0-0.03-0.001-0.052-0.001-0.069
					c0-0.008,0-0.014,0-0.018v-0.005v-0.001l0.024-0.001l-0.024,0.003v-0.001l0.024-0.001l-0.024,0.003L476.83,76.62l-0.033,0.004
					v-0.001L476.83,76.62l-0.033,0.004L476.83,76.62v0.034c-0.033-0.032-0.021-0.026-0.033-0.029L476.83,76.62v0.034V76.62
					l0.032,0.005c-0.008,0.001,0,0.007-0.032,0.028V76.62l0.032,0.005l-0.027-0.005h0.029l-0.002,0.005l-0.027-0.005h0.029H476.83z"
					/>
				<g clip-path="url(#SVGID_24_)">
					<path fill="#444444" d="M453.214,111.162v-6.3h1.904l1.143,4.298l1.13-4.298h1.908v6.3h-1.182v-4.959l-1.25,4.959h-1.226
						l-1.246-4.959v4.959H453.214z"/>
					<path fill="#444444" d="M461.41,108.815c0-0.401,0.099-0.79,0.296-1.165c0.198-0.375,0.479-0.662,0.841-0.859
						s0.767-0.296,1.214-0.296c0.69,0,1.256,0.224,1.697,0.672c0.441,0.449,0.662,1.015,0.662,1.7c0,0.69-0.223,1.263-0.668,1.717
						c-0.446,0.454-1.007,0.681-1.683,0.681c-0.419,0-0.817-0.094-1.197-0.284c-0.38-0.189-0.668-0.466-0.866-0.832
						C461.509,109.784,461.41,109.339,461.41,108.815z M462.648,108.88c0,0.453,0.107,0.799,0.322,1.04
						c0.215,0.241,0.48,0.361,0.795,0.361c0.315,0,0.58-0.121,0.793-0.361c0.214-0.24,0.32-0.59,0.32-1.048
						c0-0.447-0.106-0.791-0.32-1.031c-0.213-0.241-0.478-0.361-0.793-0.361c-0.314,0-0.58,0.121-0.795,0.361
						S462.648,108.427,462.648,108.88z"/>
					<path fill="#444444" d="M472.362,111.162h-1.208v-2.329c0-0.493-0.025-0.812-0.077-0.956c-0.052-0.145-0.136-0.257-0.251-0.337
						c-0.116-0.081-0.256-0.121-0.419-0.121c-0.21,0-0.397,0.058-0.563,0.172c-0.166,0.115-0.28,0.267-0.342,0.456
						s-0.092,0.539-0.092,1.049v2.067h-1.208v-4.564h1.122v0.67c0.397-0.516,0.899-0.773,1.504-0.773c0.267,0,0.51,0.048,0.73,0.144
						c0.221,0.096,0.388,0.218,0.501,0.367c0.112,0.149,0.191,0.318,0.236,0.507c0.044,0.189,0.066,0.46,0.066,0.812V111.162z"/>
					<path fill="#444444" d="M474.617,111.462l1.38,0.167c0.023,0.161,0.076,0.271,0.159,0.331c0.114,0.086,0.295,0.129,0.541,0.129
						c0.315,0,0.552-0.047,0.709-0.142c0.106-0.063,0.187-0.165,0.241-0.305c0.037-0.101,0.056-0.285,0.056-0.555v-0.666
						c-0.361,0.493-0.816,0.739-1.366,0.739c-0.613,0-1.099-0.259-1.457-0.778c-0.281-0.41-0.421-0.919-0.421-1.53
						c0-0.765,0.184-1.35,0.552-1.753s0.826-0.606,1.373-0.606c0.564,0,1.03,0.248,1.396,0.744v-0.641h1.131v4.096
						c0,0.539-0.045,0.941-0.134,1.208c-0.089,0.266-0.213,0.476-0.374,0.627c-0.16,0.152-0.374,0.271-0.643,0.356
						c-0.268,0.086-0.606,0.129-1.016,0.129c-0.773,0-1.322-0.132-1.646-0.397c-0.323-0.265-0.485-0.601-0.485-1.008
						C474.614,111.568,474.615,111.52,474.617,111.462z M475.697,108.785c0,0.484,0.094,0.839,0.281,1.063
						c0.188,0.225,0.419,0.337,0.694,0.337c0.295,0,0.544-0.115,0.748-0.346c0.203-0.231,0.305-0.572,0.305-1.025
						c0-0.473-0.098-0.824-0.292-1.053c-0.195-0.229-0.441-0.344-0.739-0.344c-0.289,0-0.528,0.113-0.716,0.337
						C475.79,107.981,475.697,108.324,475.697,108.785z"/>
					<path fill="#444444" d="M480.971,108.815c0-0.401,0.099-0.79,0.296-1.165c0.198-0.375,0.479-0.662,0.841-0.859
						s0.767-0.296,1.214-0.296c0.69,0,1.256,0.224,1.697,0.672c0.441,0.449,0.662,1.015,0.662,1.7c0,0.69-0.223,1.263-0.668,1.717
						c-0.446,0.454-1.007,0.681-1.683,0.681c-0.419,0-0.817-0.094-1.197-0.284c-0.38-0.189-0.668-0.466-0.866-0.832
						C481.07,109.784,480.971,109.339,480.971,108.815z M482.208,108.88c0,0.453,0.107,0.799,0.322,1.04
						c0.215,0.241,0.48,0.361,0.795,0.361c0.315,0,0.58-0.121,0.793-0.361c0.214-0.24,0.32-0.59,0.32-1.048
						c0-0.447-0.106-0.791-0.32-1.031c-0.213-0.241-0.478-0.361-0.793-0.361c-0.314,0-0.58,0.121-0.795,0.361
						S482.208,108.427,482.208,108.88z"/>
					<path fill="#444444" d="M487.775,104.861h2.325c0.524,0,0.924,0.041,1.199,0.121c0.369,0.109,0.686,0.302,0.949,0.58
						s0.465,0.618,0.602,1.021c0.138,0.403,0.207,0.899,0.207,1.489c0,0.519-0.064,0.965-0.193,1.341
						c-0.158,0.458-0.383,0.83-0.675,1.113c-0.221,0.215-0.519,0.383-0.895,0.503c-0.28,0.089-0.655,0.133-1.126,0.133h-2.394
						V104.861z M489.047,105.927v4.173h0.949c0.355,0,0.612-0.02,0.77-0.06c0.206-0.052,0.378-0.139,0.514-0.262
						s0.247-0.326,0.333-0.608s0.129-0.667,0.129-1.154c0-0.487-0.043-0.861-0.129-1.122c-0.086-0.26-0.206-0.464-0.361-0.61
						c-0.154-0.146-0.351-0.245-0.589-0.297c-0.177-0.04-0.525-0.06-1.044-0.06H489.047z"/>
					<path fill="#444444" d="M495.275,104.861h2.519c0.498,0,0.87,0.021,1.115,0.062s0.464,0.128,0.657,0.26
						s0.354,0.307,0.483,0.526s0.193,0.465,0.193,0.737c0,0.295-0.079,0.566-0.238,0.812c-0.159,0.246-0.375,0.431-0.646,0.554
						c0.384,0.112,0.679,0.302,0.885,0.571c0.206,0.27,0.31,0.586,0.31,0.95c0,0.286-0.066,0.565-0.2,0.835
						c-0.133,0.271-0.314,0.487-0.546,0.649c-0.23,0.162-0.515,0.262-0.853,0.299c-0.212,0.023-0.724,0.037-1.534,0.043h-2.145
						V104.861z M496.547,105.91v1.457h0.833c0.496,0,0.804-0.007,0.924-0.021c0.218-0.026,0.39-0.101,0.514-0.226
						c0.125-0.125,0.188-0.289,0.188-0.492c0-0.195-0.054-0.353-0.161-0.475c-0.107-0.122-0.268-0.195-0.479-0.221
						c-0.126-0.014-0.488-0.021-1.087-0.021H496.547z M496.547,108.416v1.685h1.177c0.459,0,0.75-0.013,0.873-0.039
						c0.188-0.035,0.343-0.118,0.462-0.251s0.178-0.312,0.178-0.535c0-0.189-0.046-0.349-0.137-0.481
						c-0.092-0.132-0.225-0.228-0.397-0.288c-0.174-0.06-0.55-0.09-1.129-0.09H496.547z"/>
				</g>
			</g>
		</g>
	</g>
</g>
<g>
	<g>
		<defs>
			<rect id="SVGID_28_" x="480.651" y="143.67" width="54.807" height="24.504"/>
		</defs>
		<clipPath id="SVGID_29_">
			<use xlink:href="#SVGID_28_"  overflow="visible"/>
		</clipPath>
		<g clip-path="url(#SVGID_29_)">
			<defs>
				<path id="SVGID_30_" d="M505.512,155.751c0,3.688,3.205,5.732,5.732,5.732c-0.573-0.08-2.478-0.489-2.501-4.879
					c-0.021-2.969,0.966-4.155,2.497-3.634c0.033,0.012,1.688,0.665,1.688,2.801c0,2.119-1.681,2.777-1.681,2.777
					c2.541,3.463,5.027-0.97,5.024-3.632c-0.003-3.154-3.199-4.912-5.027-4.912C508.307,150.005,505.512,152.431,505.512,155.751"/>
			</defs>
			<clipPath id="SVGID_31_">
				<use xlink:href="#SVGID_30_"  overflow="visible"/>
			</clipPath>
			
				<linearGradient id="SVGID_32_" gradientUnits="userSpaceOnUse" x1="1.6843" y1="299.979" x2="1.7638" y2="299.979" gradientTransform="matrix(101.8761 101.8802 -101.8904 101.8659 30900.2363 -30577.1426)">
				<stop  offset="0" style="stop-color:#434343"/>
				<stop  offset="1" style="stop-color:#FEBC5B"/>
			</linearGradient>
			<polygon clip-path="url(#SVGID_31_)" fill="url(#SVGID_32_)" points="499.507,156.008 510.893,167.394 522.279,156.01 
				510.893,144.626 			"/>
		</g>
		<g clip-path="url(#SVGID_29_)">
			<defs>
				<path id="SVGID_33_" d="M515.04,154.961c0,2.739-2.293,4.23-3.786,3.592c-0.034-0.014-1.689-0.666-1.689-2.796
					c0-2.122,1.679-2.788,1.679-2.788c-1.679-0.578-3.736,0.806-3.736,3.578c0,4.526,3.354,4.937,3.763,4.937
					c2.934,0,5.73-2.426,5.73-5.744c0-3.512-2.898-5.531-5.359-5.721C512.704,150.182,515.04,151.298,515.04,154.961
					 M511.27,150.005c0.121,0,0.247,0.004,0.371,0.014c-0.097-0.014-0.182-0.021-0.257-0.021
					C511.34,149.998,511.302,149.998,511.27,150.005"/>
			</defs>
			<clipPath id="SVGID_34_">
				<use xlink:href="#SVGID_33_"  overflow="visible"/>
			</clipPath>
			
				<linearGradient id="SVGID_35_" gradientUnits="userSpaceOnUse" x1="0.2356" y1="300.9819" x2="0.3151" y2="300.9819" gradientTransform="matrix(-101.8742 -101.8782 101.8884 -101.864 -30126.7227 30842.4492)">
				<stop  offset="0" style="stop-color:#434343"/>
				<stop  offset="0.4107" style="stop-color:#95784E"/>
				<stop  offset="0.8146" style="stop-color:#E1A957"/>
				<stop  offset="1" style="stop-color:#FEBC5B"/>
			</linearGradient>
			<polygon clip-path="url(#SVGID_34_)" fill="url(#SVGID_35_)" points="522.743,155.74 512.252,145.252 501.763,155.74 
				512.252,166.231 			"/>
		</g>
		<g clip-path="url(#SVGID_29_)">
			<defs>
				<rect id="SVGID_36_" x="480.651" y="142.77" width="54.807" height="26.212"/>
			</defs>
			<clipPath id="SVGID_37_">
				<use xlink:href="#SVGID_36_"  overflow="visible"/>
			</clipPath>
			<path clip-path="url(#SVGID_37_)" fill="none" stroke="#FEBC5B" stroke-width="1.0326" stroke-miterlimit="10" d="
				M482.827,154.935l0.915-0.015c0,0,1.628,0.342,1.678-2.459c0.051-2.804-0.306-3.616,1.018-3.616h1.327"/>
			<path clip-path="url(#SVGID_37_)" fill="none" stroke="#FEBC5B" stroke-width="1.0326" stroke-miterlimit="10" d="
				M482.827,155.516l0.915,0.013c0,0,1.628-0.34,1.678,2.461c0.051,2.801-0.306,3.616,1.018,3.616h1.327"/>
			<path clip-path="url(#SVGID_37_)" fill="none" stroke="#FEBC5B" stroke-width="1.0326" stroke-miterlimit="10" d="
				M533.037,154.853l-0.909-0.011c0,0-1.627,0.338-1.68-2.461c-0.053-2.8,0.303-3.616-1.02-3.616h-1.324"/>
			<path clip-path="url(#SVGID_37_)" fill="none" stroke="#FEBC5B" stroke-width="1.0326" stroke-miterlimit="10" d="
				M533.037,155.436l-0.909,0.016c0,0-1.627-0.339-1.68,2.459c-0.053,2.802,0.303,3.615-1.02,3.615h-1.324"/>
		</g>
		<g clip-path="url(#SVGID_29_)">
			<path fill="#444444" d="M493.513,150.62h1.944v6.119c0,0.8-0.07,1.415-0.211,1.846c-0.188,0.562-0.531,1.015-1.028,1.355
				c-0.497,0.34-1.151,0.511-1.965,0.511c-0.954,0-1.688-0.268-2.202-0.802c-0.515-0.533-0.773-1.317-0.778-2.351l1.84-0.211
				c0.022,0.555,0.104,0.945,0.244,1.174c0.211,0.348,0.531,0.521,0.963,0.521c0.435,0,0.742-0.125,0.923-0.373
				c0.18-0.248,0.271-0.764,0.271-1.546V150.62z"/>
			<path fill="#444444" d="M497.04,157.14l1.898-0.185c0.114,0.638,0.347,1.105,0.695,1.405c0.35,0.299,0.821,0.448,1.415,0.448
				c0.628,0,1.102-0.133,1.421-0.399c0.318-0.266,0.478-0.577,0.478-0.933c0-0.229-0.067-0.423-0.201-0.584
				c-0.134-0.16-0.368-0.3-0.702-0.418c-0.229-0.08-0.749-0.221-1.562-0.423c-1.046-0.259-1.78-0.577-2.202-0.956
				c-0.594-0.531-0.891-1.18-0.891-1.944c0-0.492,0.14-0.953,0.419-1.382s0.682-0.755,1.207-0.979
				c0.525-0.224,1.159-0.336,1.902-0.336c1.213,0,2.126,0.266,2.739,0.798s0.936,1.242,0.966,2.13l-1.951,0.086
				c-0.084-0.497-0.263-0.854-0.538-1.071c-0.274-0.218-0.687-0.327-1.236-0.327c-0.566,0-1.011,0.117-1.331,0.35
				c-0.207,0.149-0.311,0.35-0.311,0.601c0,0.229,0.097,0.424,0.29,0.587c0.246,0.206,0.844,0.422,1.794,0.646
				c0.949,0.225,1.651,0.456,2.106,0.695c0.455,0.24,0.811,0.567,1.068,0.982c0.257,0.416,0.386,0.929,0.386,1.54
				c0,0.554-0.154,1.072-0.462,1.556c-0.308,0.484-0.743,0.844-1.306,1.078c-0.562,0.235-1.264,0.354-2.104,0.354
				c-1.222,0-2.16-0.283-2.815-0.848C497.559,159.045,497.167,158.222,497.04,157.14z"/>
		</g>
		<g clip-path="url(#SVGID_29_)">
			<path fill="#444444" d="M517.767,160.123v-9.666h1.899l3.956,6.455v-6.455h1.812v9.666h-1.958l-3.896-6.304v6.304H517.767z"/>
		</g>
	</g>
</g>
<polygon fill="#FEBC5B" points="453.93,168.878 452.413,171.519 439.284,171.574 437.658,168.597 435.246,145.091 456.736,144.753 
	"/>
<path fill="#434343" d="M455.398,132.715c-0.048,0.039-1.383,1.42-2.954,3.077l-2.859,3.008l-1.146,4.462l-3.188,0.053
	c-5.934,0.127-9.442,0.604-10.091,1.375c-0.122,0.145-0.104,0.188,0.115,0.378c1.552,1.336,13.815,1.725,19.482,0.631
	c2.01-0.391,2.526-0.881,1.428-1.343c-0.83-0.363-3.867-0.859-5.229-0.859c-0.372,0-0.461-0.029-0.461-0.171
	c0-0.086,0.209-0.96,0.461-1.937l0.448-1.771l2.667-2.819c1.469-1.551,2.677-2.894,2.698-2.969
	C456.865,133.399,455.73,132.485,455.398,132.715z"/>
<path fill="#434343" d="M435.259,145.918c0,0.289,1.15,11.131,1.207,11.299c0.021,0.078,0.114-0.067,0.212-0.343
	c0.844-2.374,2.528-4.384,3.96-4.716c0.694-0.164,1.221,0.006,1.785,0.568c0.616,0.625,0.731,1.287,0.252,1.546
	c-0.237,0.124-0.462-0.048-0.769-0.604c-0.655-1.171-1.877-0.551-3.194,1.639c-1.388,2.308-1.751,4.86-0.693,4.86
	c0.388,0,1.334-0.745,1.99-1.564c0.449-0.567,0.618-0.884,0.866-1.618c0.163-0.494,0.35-0.953,0.428-1.008
	c0.078-0.056,0.248-0.098,0.399-0.077c0.247,0.029,0.268,0.068,0.297,0.477c0.015,0.311-0.056,0.695-0.267,1.287
	c-0.278,0.779-0.592,1.782-1.185,3.744c-0.132,0.446-0.306,0.904-0.389,1.019c-0.207,0.296-0.503,0.275-0.637-0.029
	c-0.098-0.2-0.069-0.409,0.201-1.304c0.171-0.591,0.343-1.153,0.369-1.259c0.031-0.121-0.191,0.041-0.598,0.42
	c-0.953,0.886-1.887,1.257-2.438,0.963c-0.164-0.086-0.183-0.068-0.183,0.162c0,0.719,0.687,7.218,0.771,7.322
	c0.286,0.343,2.314,0.923,4.372,1.249c1.571,0.246,6.049,0.246,7.622,0c1.353-0.219,2.826-0.562,3.545-0.828
	c1.008-0.372,0.882,0.038,1.456-4.905c0.275-2.412,0.494-4.405,0.479-4.412c-0.021-0.018-0.325,0.208-0.679,0.506
	c-0.766,0.646-1.267,0.894-1.83,0.906c-0.505,0-0.765-0.129-0.878-0.442c-0.131-0.333,0.046-0.722,0.771-1.62
	c0.811-1,0.946-1.189,0.946-1.39c0-0.433-0.984,0.019-1.545,0.706c-0.181,0.229-0.449,0.602-0.589,0.83
	c-0.324,0.504-1.166,2.417-1.582,3.611c-0.326,0.922-0.63,1.351-0.943,1.351c-0.185,0-0.487-0.226-0.487-0.361
	c0-0.252,0.303-1.021,0.867-2.249c0.365-0.781,0.656-1.441,0.656-1.461c0-0.018-0.182,0.108-0.409,0.289
	c-0.543,0.448-1.145,0.736-1.513,0.736c-0.362,0-0.746-0.231-0.746-0.442c0-0.169,0.017-0.18-0.58,0.153
	c-0.905,0.495-1.42,0.313-1.42-0.514v-0.381l-0.393,0.408c-0.714,0.731-1.683,0.99-2.215,0.571
	c-0.345-0.264-0.336-0.895,0.025-1.979c0.66-1.947,1.166-2.708,1.609-2.418c0.277,0.17,0.229,0.446-0.208,1.351
	c-0.754,1.549-0.797,2.287-0.13,2.095c0.637-0.182,1.397-1.181,1.93-2.515c0.146-0.373,0.326-0.742,0.412-0.841
	c0.21-0.235,0.524-0.169,0.63,0.134c0.065,0.203,0,0.465-0.375,1.382c-0.303,0.747-0.465,1.276-0.465,1.562
	c-0.008,0.408,0,0.428,0.268,0.408c0.343-0.028,0.896-0.387,0.971-0.645c0.296-0.962,2.496-6.336,2.668-6.526
	c0.188-0.191,0.267-0.219,0.484-0.136c0.162,0.06,0.279,0.174,0.298,0.3c0.02,0.113-0.161,0.646-0.401,1.189
	c-0.933,2.163-2.149,5.288-2.149,5.527c0,0.15,0.045,0.264,0.093,0.264c0.227,0,0.859-0.4,1.544-0.981
	c0.606-0.533,0.753-0.703,0.887-1.131c0.359-1.106,0.625-1.419,1.017-1.213c0.155,0.087,0.18,0.173,0.142,0.428
	c-0.026,0.187-0.026,0.329,0,0.329c0.029,0,0.247-0.174,0.479-0.389c0.722-0.657,1.339-0.823,1.913-0.47
	c0.266,0.162,0.304,0.238,0.304,0.601c0,0.497-0.379,1.175-1.182,2.116c-0.295,0.345-0.534,0.668-0.534,0.725
	c0,0.044,0.094,0.083,0.221,0.083c0.21,0,1.81-1.224,2.164-1.66c0.104-0.128,0.324-1.883,0.83-6.522
	c0.374-3.484,0.676-6.354,0.655-6.364c-0.007-0.018-0.256,0.055-0.553,0.164c-0.744,0.255-2.354,0.533-4.288,0.73
	c-2.095,0.209-9.191,0.239-11.27,0.046c-1.935-0.181-3.806-0.474-4.596-0.729l-0.682-0.224v0.209L435.259,145.918z"/>
<path fill="#434343" d="M438.115,169.554c0,0.019,0.305,0.552,0.668,1.184l0.675,1.149l0.278,3.827l0.288,3.842l0.287,0.246
	c0.713,0.611,2.427,0.951,5.095,1.012c3.029,0.068,5.394-0.312,6.165-1.012l0.306-0.269l0.22-3.863l0.218-3.861l0.621-1.085
	c0.34-0.593,0.618-1.107,0.618-1.143c0-0.028-0.286,0.037-0.647,0.163c-1.286,0.437-3.796,0.827-6.021,0.952
	c-2.478,0.134-6.316-0.336-8.262-1.009c-0.274-0.096-0.505-0.155-0.505-0.134H438.115z"/>
<path fill="#FEBC5B" d="M455.398,132.715c-0.048,0.039-1.383,1.42-2.954,3.077l-2.859,3.008l-1.146,4.462
	c0,0,0.731,0.149,2.067,0.256c0.033,0.004,0.198-1.154,0.45-2.13l0.448-1.771l2.667-2.819c1.469-1.551,2.677-2.894,2.698-2.969
	C456.865,133.399,455.73,132.485,455.398,132.715z"/>
<g>
	<g>
		<defs>
			<rect id="SVGID_38_" x="490.245" y="30.59" width="35.676" height="35.678"/>
		</defs>
		<clipPath id="SVGID_39_">
			<use xlink:href="#SVGID_38_"  overflow="visible"/>
		</clipPath>
		<g clip-path="url(#SVGID_39_)">
			<defs>
				<rect id="SVGID_40_" x="490.245" y="30.59" width="35.676" height="35.678"/>
			</defs>
			<clipPath id="SVGID_41_">
				<use xlink:href="#SVGID_40_"  overflow="visible"/>
			</clipPath>
			<rect x="490.245" y="30.59" clip-path="url(#SVGID_41_)" fill="#FEBC5B" width="35.676" height="35.678"/>
			<g clip-path="url(#SVGID_41_)">
				<defs>
					<rect id="SVGID_42_" x="490.245" y="30.59" width="35.676" height="35.678"/>
				</defs>
				<clipPath id="SVGID_43_">
					<use xlink:href="#SVGID_42_"  overflow="visible"/>
				</clipPath>
				
					<rect x="490.245" y="30.59" clip-path="url(#SVGID_43_)" fill="none" stroke="#231F20" stroke-width="0.0339" stroke-miterlimit="10" width="35.676" height="35.678"/>
				<path clip-path="url(#SVGID_43_)" fill-rule="evenodd" clip-rule="evenodd" fill="#434343" d="M506.286,46.97h3.357
					l-0.034,12.21c0,0-0.271,2.395-1.729,3.324c-1.794,1.14-3.267,0.926-3.562,0.915c-1.711-0.063-2.718-0.713-3.153-1.05
					c-0.968-0.751-1.56-1.968-1.56-1.968l2.746-1.661c0,0,0.664,1.641,1.967,1.729c0.646,0.044,1.252-0.171,1.527-0.474
					c0.405-0.449,0.441-1.357,0.441-1.357V46.97z"/>
				<defs>
					<filter id="Adobe_OpacityMaskFilter_2_" filterUnits="userSpaceOnUse" x="499.583" y="46.954" width="10.077" height="16.506">
						<feColorMatrix  type="matrix" values="1 0 0 0 0  0 1 0 0 0  0 0 1 0 0  0 0 0 1 0"/>
					</filter>
				</defs>
				<mask maskUnits="userSpaceOnUse" x="499.583" y="46.954" width="10.077" height="16.506" id="SVGID_44_">
					<g filter="url(#Adobe_OpacityMaskFilter_2_)">
						
							<linearGradient id="SVGID_45_" gradientUnits="userSpaceOnUse" x1="1.2512" y1="300.2505" x2="1.2851" y2="300.2505" gradientTransform="matrix(298.3018 0 0 -298.3018 126.3168 89613.7891)">
							<stop  offset="0" style="stop-color:#000000"/>
							<stop  offset="0.0088" style="stop-color:#0D0D0D"/>
							<stop  offset="0.0464" style="stop-color:#3F3F3F"/>
							<stop  offset="0.0868" style="stop-color:#6D6D6D"/>
							<stop  offset="0.1291" style="stop-color:#949494"/>
							<stop  offset="0.1737" style="stop-color:#B5B5B5"/>
							<stop  offset="0.2213" style="stop-color:#D0D0D0"/>
							<stop  offset="0.2729" style="stop-color:#E5E5E5"/>
							<stop  offset="0.3307" style="stop-color:#F4F4F4"/>
							<stop  offset="0.3996" style="stop-color:#FCFCFC"/>
							<stop  offset="0.5084" style="stop-color:#FFFFFF"/>
							<stop  offset="0.5739" style="stop-color:#FBFBFB"/>
							<stop  offset="0.6361" style="stop-color:#F0F0F0"/>
							<stop  offset="0.6971" style="stop-color:#DDDDDD"/>
							<stop  offset="0.7572" style="stop-color:#C2C2C2"/>
							<stop  offset="0.8167" style="stop-color:#9F9F9F"/>
							<stop  offset="0.8759" style="stop-color:#747474"/>
							<stop  offset="0.9347" style="stop-color:#424242"/>
							<stop  offset="0.9918" style="stop-color:#090909"/>
							<stop  offset="1" style="stop-color:#000000"/>
						</linearGradient>
						<rect x="490.245" y="30.59" clip-path="url(#SVGID_43_)" fill="url(#SVGID_45_)" width="35.676" height="35.678"/>
					</g>
				</mask>
				
					<linearGradient id="SVGID_46_" gradientUnits="userSpaceOnUse" x1="1.2522" y1="300.229" x2="1.286" y2="300.229" gradientTransform="matrix(298.302 0 0 -298.302 126.0667 89614.1094)">
					<stop  offset="0" style="stop-color:#FFFFFF"/>
					<stop  offset="0.0424" style="stop-color:#D4D4D4"/>
					<stop  offset="0.0882" style="stop-color:#AEAEAE"/>
					<stop  offset="0.1376" style="stop-color:#8D8D8D"/>
					<stop  offset="0.1903" style="stop-color:#727272"/>
					<stop  offset="0.2475" style="stop-color:#5D5D5D"/>
					<stop  offset="0.3115" style="stop-color:#4E4E4E"/>
					<stop  offset="0.3878" style="stop-color:#464646"/>
					<stop  offset="0.5084" style="stop-color:#434343"/>
					<stop  offset="0.6755" style="stop-color:#403F3F"/>
					<stop  offset="0.834" style="stop-color:#353434"/>
					<stop  offset="0.9885" style="stop-color:#252122"/>
					<stop  offset="1" style="stop-color:#231F20"/>
				</linearGradient>
				<path clip-path="url(#SVGID_43_)" mask="url(#SVGID_44_)" fill="url(#SVGID_46_)" d="M506.286,46.97v-0.017h3.374l-0.033,12.227
					v0.001c-0.001,0.002-0.27,2.401-1.738,3.336c-1.285,0.818-2.408,0.941-3.05,0.941c-0.256,0-0.438-0.019-0.521-0.023
					c-1.717-0.064-2.727-0.717-3.161-1.054c-0.973-0.753-1.565-1.972-1.567-1.973l-0.006-0.015l2.777-1.68l0.007,0.019
					c0,0.002,0.662,1.634,1.952,1.718c0.058,0.005,0.114,0.006,0.169,0.006c0.578,0,1.096-0.201,1.343-0.475
					c0.4-0.441,0.438-1.345,0.438-1.346l0.018,0.001h-0.018V46.954h0.018V46.97h0.018v11.667v0c-0.001,0.002-0.033,0.91-0.446,1.367
					c-0.257,0.284-0.784,0.486-1.369,0.486c-0.056,0-0.112-0.002-0.171-0.006c-1.318-0.093-1.98-1.739-1.982-1.74l0.016-0.006
					l0.01,0.014l-2.744,1.662l-0.012-0.015l0.017-0.008c0,0.004,0.589,1.215,1.554,1.962c0.435,0.335,1.435,0.984,3.144,1.047
					c0.086,0.003,0.266,0.022,0.521,0.022c0.64,0,1.754-0.122,3.031-0.935c1.448-0.921,1.721-3.31,1.725-3.311l0.015,0.001h-0.015
					l0.032-12.192h-3.341V46.97h0.018H506.286z"/>
				<path clip-path="url(#SVGID_43_)" fill-rule="evenodd" clip-rule="evenodd" fill="#434343" d="M511.44,59.995l2.713-1.562
					c0,0,1.144,2.602,4.273,1.9c1.52-0.341,1.475-1.743,1.12-2.34c-0.215-0.363-0.622-0.543-0.882-0.712
					c-0.839-0.553-4.381-1.628-5.46-3.358c-0.235-0.377-0.44-0.746-0.578-1.22c-0.314-1.099-0.313-2.436,0.274-3.528
					c0.837-1.56,2.272-2.162,3.49-2.305c1.826-0.214,3,0.033,4.14,0.813c0.994,0.682,1.559,1.797,1.559,1.797l-2.609,1.628
					c0,0-0.256-0.567-0.781-0.985c-0.415-0.328-1.018-0.552-1.663-0.405c-0.264,0.06-0.513,0.094-0.711,0.237
					c-0.965,0.69-0.979,2.375,1.356,3.188c2.899,1.009,4.143,1.805,5.018,3.663c0.346,0.728,0.503,1.913,0.271,2.984
					c-0.21,0.985-0.759,1.862-1.491,2.442c-0.592,0.471-1.729,1.072-3.255,1.187c-2.055,0.157-3.307-0.373-3.832-0.577
					c-0.229-0.088-1.003-0.552-1.628-1.118C511.709,60.768,511.44,59.995,511.44,59.995"/>
				<defs>
					<filter id="Adobe_OpacityMaskFilter_3_" filterUnits="userSpaceOnUse" x="511.421" y="46.779" width="11.677" height="16.686">
						<feColorMatrix  type="matrix" values="1 0 0 0 0  0 1 0 0 0  0 0 1 0 0  0 0 0 1 0"/>
					</filter>
				</defs>
				<mask maskUnits="userSpaceOnUse" x="511.421" y="46.779" width="11.677" height="16.686" id="SVGID_47_">
					<g filter="url(#Adobe_OpacityMaskFilter_3_)">
						
							<linearGradient id="SVGID_48_" gradientUnits="userSpaceOnUse" x1="0.1721" y1="300.2769" x2="0.2061" y2="300.2769" gradientTransform="matrix(345.4102 0 0 -345.4102 452.0472 103767.0938)">
							<stop  offset="0" style="stop-color:#000000"/>
							<stop  offset="0.0088" style="stop-color:#0D0D0D"/>
							<stop  offset="0.0464" style="stop-color:#3F3F3F"/>
							<stop  offset="0.0868" style="stop-color:#6D6D6D"/>
							<stop  offset="0.1291" style="stop-color:#949494"/>
							<stop  offset="0.1737" style="stop-color:#B5B5B5"/>
							<stop  offset="0.2213" style="stop-color:#D0D0D0"/>
							<stop  offset="0.2729" style="stop-color:#E5E5E5"/>
							<stop  offset="0.3307" style="stop-color:#F4F4F4"/>
							<stop  offset="0.3996" style="stop-color:#FCFCFC"/>
							<stop  offset="0.5084" style="stop-color:#FFFFFF"/>
							<stop  offset="0.5739" style="stop-color:#FBFBFB"/>
							<stop  offset="0.6361" style="stop-color:#F0F0F0"/>
							<stop  offset="0.6971" style="stop-color:#DDDDDD"/>
							<stop  offset="0.7572" style="stop-color:#C2C2C2"/>
							<stop  offset="0.8167" style="stop-color:#9F9F9F"/>
							<stop  offset="0.8759" style="stop-color:#747474"/>
							<stop  offset="0.9347" style="stop-color:#424242"/>
							<stop  offset="0.9918" style="stop-color:#090909"/>
							<stop  offset="1" style="stop-color:#000000"/>
						</linearGradient>
						<rect x="490.245" y="30.59" clip-path="url(#SVGID_43_)" fill="url(#SVGID_48_)" width="35.676" height="35.678"/>
					</g>
				</mask>
				
					<linearGradient id="SVGID_49_" gradientUnits="userSpaceOnUse" x1="0.1731" y1="300.2593" x2="0.2069" y2="300.2593" gradientTransform="matrix(345.41 0 0 -345.41 451.5472 103767.5391)">
					<stop  offset="0" style="stop-color:#FFFFFF"/>
					<stop  offset="0.0424" style="stop-color:#D4D4D4"/>
					<stop  offset="0.0882" style="stop-color:#AEAEAE"/>
					<stop  offset="0.1376" style="stop-color:#8D8D8D"/>
					<stop  offset="0.1903" style="stop-color:#727272"/>
					<stop  offset="0.2475" style="stop-color:#5D5D5D"/>
					<stop  offset="0.3115" style="stop-color:#4E4E4E"/>
					<stop  offset="0.3878" style="stop-color:#464646"/>
					<stop  offset="0.5084" style="stop-color:#434343"/>
					<stop  offset="0.6755" style="stop-color:#403F3F"/>
					<stop  offset="0.834" style="stop-color:#353434"/>
					<stop  offset="0.9885" style="stop-color:#252122"/>
					<stop  offset="1" style="stop-color:#231F20"/>
				</linearGradient>
				<path clip-path="url(#SVGID_43_)" mask="url(#SVGID_47_)" fill="url(#SVGID_49_)" d="M511.44,59.995l-0.007-0.015l2.73-1.569
					l0.008,0.016c0.001,0.002,0.881,2.01,3.221,2.01c0.318,0,0.661-0.036,1.032-0.12c0.994-0.224,1.31-0.901,1.31-1.51
					c0.002-0.312-0.082-0.604-0.203-0.805c-0.212-0.356-0.615-0.536-0.874-0.708c-0.833-0.55-4.381-1.624-5.467-3.36
					c-0.237-0.382-0.441-0.752-0.579-1.228c-0.132-0.466-0.21-0.974-0.21-1.49c0-0.702,0.146-1.417,0.482-2.051
					c0.843-1.566,2.284-2.173,3.507-2.313c0.417-0.049,0.798-0.074,1.154-0.074c1.207-0.001,2.113,0.286,2.996,0.891
					c0.998,0.684,1.563,1.801,1.564,1.803l0.007,0.014l-2.638,1.647l-0.012-0.019c0-0.001-0.253-0.564-0.774-0.977
					c-0.322-0.258-0.761-0.45-1.244-0.449c-0.133,0-0.268,0.015-0.402,0.046c-0.268,0.059-0.511,0.095-0.706,0.234
					c-0.375,0.269-0.607,0.689-0.607,1.15c0,0.708,0.547,1.515,1.96,2.008c2.899,1.009,4.146,1.808,5.028,3.672
					c0.234,0.495,0.382,1.197,0.382,1.933c0,0.354-0.034,0.712-0.11,1.062c-0.21,0.988-0.762,1.869-1.497,2.45
					c-0.597,0.473-1.734,1.076-3.266,1.191c-0.257,0.021-0.501,0.029-0.736,0.029c-1.624,0-2.645-0.429-3.103-0.606
					c-0.235-0.091-1.006-0.553-1.634-1.122c-1.059-0.958-1.326-1.734-1.326-1.737l-0.005-0.013l0.012-0.007L511.44,59.995
					l0.018-0.006c0,0.001,0.266,0.77,1.318,1.723c0.622,0.564,1.396,1.029,1.621,1.116c0.461,0.177,1.475,0.603,3.092,0.604
					c0.233,0,0.479-0.01,0.735-0.029c1.522-0.115,2.654-0.715,3.246-1.184c0.728-0.576,1.276-1.451,1.484-2.431
					c0.076-0.347,0.109-0.705,0.109-1.055c0-0.73-0.146-1.431-0.379-1.919c-0.874-1.854-2.111-2.644-5.008-3.654
					c-1.42-0.494-1.981-1.314-1.981-2.04c0-0.472,0.235-0.904,0.619-1.176c0.205-0.147,0.456-0.182,0.718-0.241
					c0.139-0.031,0.277-0.046,0.411-0.046c0.491,0,0.938,0.195,1.264,0.456c0.531,0.419,0.788,0.989,0.788,0.99l-0.016,0.007
					l-0.008-0.014l2.61-1.628l0.007,0.013l-0.015,0.007c-0.001-0.002-0.564-1.112-1.553-1.791c-0.879-0.6-1.774-0.883-2.978-0.883
					c-0.354,0-0.735,0.024-1.151,0.073c-1.215,0.143-2.643,0.743-3.479,2.298c-0.338,0.626-0.479,1.335-0.479,2.033
					c0,0.513,0.077,1.018,0.208,1.481c0.138,0.47,0.338,0.838,0.577,1.215c1.07,1.721,4.609,2.799,5.454,3.354
					c0.256,0.167,0.666,0.349,0.888,0.718c0.122,0.206,0.205,0.503,0.205,0.821c0.002,0.62-0.326,1.319-1.337,1.542
					c-0.371,0.084-0.718,0.121-1.038,0.121c-2.361,0-3.253-2.028-3.254-2.029l0.015-0.008l0.012,0.017l-2.715,1.558L511.44,59.995
					l0.018-0.006L511.44,59.995z"/>
			</g>
		</g>
	</g>
</g>
<path fill="#FFFFFF" stroke="#FEBC5B" stroke-width="4.4784" stroke-miterlimit="10" d="M539.517,73.142
	c15.612,0,28.275,12.654,28.275,28.271c0,15.614-12.657,28.272-28.275,28.272c-15.612,0-28.272-12.662-28.272-28.272
	C511.244,85.803,523.901,73.142,539.517,73.142z"/>
<rect x="512.874" y="93.108" fill="#434343" width="53.271" height="16.362"/>
<g>
	<g>
		<defs>
			<rect id="SVGID_50_" x="514.356" y="97.303" width="50.341" height="11.205"/>
		</defs>
		<clipPath id="SVGID_51_">
			<use xlink:href="#SVGID_50_"  overflow="visible"/>
		</clipPath>
		<g clip-path="url(#SVGID_51_)">
			<defs>
				<rect id="SVGID_52_" x="514.356" y="97.303" width="50.341" height="11.205"/>
			</defs>
			<clipPath id="SVGID_53_">
				<use xlink:href="#SVGID_52_"  overflow="visible"/>
			</clipPath>
			<g clip-path="url(#SVGID_53_)">
				<defs>
					<rect id="SVGID_54_" x="514.356" y="97.382" width="50.131" height="11.126"/>
				</defs>
				<clipPath id="SVGID_55_">
					<use xlink:href="#SVGID_54_"  overflow="visible"/>
				</clipPath>
			</g>
			<polygon clip-path="url(#SVGID_53_)" fill="#FDBB5B" points="521.614,105.562 522.323,105.562 525.19,101.828 527.901,105.562 
				528.716,105.562 525.613,101.275 528.505,97.514 527.61,97.514 525.141,100.747 522.665,97.487 521.797,97.487 524.795,101.222 
							"/>
			<defs>
				<filter id="Adobe_OpacityMaskFilter_4_" filterUnits="userSpaceOnUse" x="521.614" y="97.487" width="7.103" height="8.075">
					<feColorMatrix  type="matrix" values="1 0 0 0 0  0 1 0 0 0  0 0 1 0 0  0 0 0 1 0"/>
				</filter>
			</defs>
			<mask maskUnits="userSpaceOnUse" x="521.614" y="97.487" width="7.103" height="8.075" id="SVGID_56_">
				<g filter="url(#Adobe_OpacityMaskFilter_4_)">
					
						<radialGradient id="SVGID_57_" cx="8.4255" cy="302.7573" r="0.0789" gradientTransform="matrix(48.9076 0 0 -48.9076 113.0813 14908.709)" gradientUnits="userSpaceOnUse">
						<stop  offset="0" style="stop-color:#FFFFFF"/>
						<stop  offset="0.4588" style="stop-color:#FFFFFF"/>
						<stop  offset="0.5564" style="stop-color:#FCFCFC"/>
						<stop  offset="0.6282" style="stop-color:#F3F3F3"/>
						<stop  offset="0.6916" style="stop-color:#E3E3E3"/>
						<stop  offset="0.7503" style="stop-color:#CCCCCC"/>
						<stop  offset="0.8057" style="stop-color:#AFAFAF"/>
						<stop  offset="0.8586" style="stop-color:#8B8B8B"/>
						<stop  offset="0.9096" style="stop-color:#616161"/>
						<stop  offset="0.9578" style="stop-color:#313131"/>
						<stop  offset="1" style="stop-color:#000000"/>
					</radialGradient>
					<rect x="514.356" y="97.303" clip-path="url(#SVGID_53_)" fill="url(#SVGID_57_)" width="50.341" height="11.205"/>
				</g>
			</mask>
			
				<radialGradient id="SVGID_58_" cx="8.426" cy="302.7573" r="0.0792" gradientTransform="matrix(48.9076 0 0 -48.9076 113.0813 14908.709)" gradientUnits="userSpaceOnUse">
				<stop  offset="0" style="stop-color:#FDBB5B"/>
				<stop  offset="0.4588" style="stop-color:#FDBB5B"/>
				<stop  offset="0.5745" style="stop-color:#FDBC5E"/>
				<stop  offset="0.6594" style="stop-color:#FDC067"/>
				<stop  offset="0.7346" style="stop-color:#FDC777"/>
				<stop  offset="0.804" style="stop-color:#FED08E"/>
				<stop  offset="0.8696" style="stop-color:#FEDCAB"/>
				<stop  offset="0.9322" style="stop-color:#FEEBCF"/>
				<stop  offset="0.9915" style="stop-color:#FFFCF8"/>
				<stop  offset="1" style="stop-color:#FFFFFF"/>
			</radialGradient>
			<polygon clip-path="url(#SVGID_53_)" mask="url(#SVGID_56_)" fill="url(#SVGID_58_)" points="521.614,105.562 521.614,105.562 
				522.323,105.562 525.19,101.828 527.901,105.562 528.716,105.562 525.613,101.275 528.505,97.514 527.61,97.514 525.141,100.747 
				522.665,97.487 521.797,97.487 524.795,101.222 521.614,105.562 521.614,105.562 521.614,105.562 524.795,101.222 
				521.797,97.487 522.665,97.487 525.141,100.747 527.61,97.514 528.505,97.514 525.613,101.275 528.716,105.562 527.901,105.562 
				525.19,101.828 522.323,105.562 521.614,105.562 			"/>
			<g clip-path="url(#SVGID_53_)">
				<defs>
					<rect id="SVGID_59_" x="514.356" y="97.303" width="50.341" height="11.205"/>
				</defs>
				<clipPath id="SVGID_60_">
					<use xlink:href="#SVGID_59_"  overflow="visible"/>
				</clipPath>
				<path clip-path="url(#SVGID_60_)" fill="#FDBB5B" d="M533.174,97.303c-2.053,0.079-2.802,1.973-2.802,1.973v-1.817l-0.631-0.018
					v11.067h0.612l0.042-4.576c0,0,0.501,1.839,3.027,1.813c1.83-0.021,2.419-0.868,2.419-0.868s1.159-0.967,1.159-3.154
					C537.001,98.585,535.224,97.224,533.174,97.303 M533.272,105.173c0,0-2.883,0.414-2.899-3.568
					c-0.019-3.985,2.96-3.729,3.216-3.729c0.257,0,2.821,0.157,2.761,3.848C536.291,105.413,533.272,105.173,533.272,105.173"/>
				<defs>
					<filter id="Adobe_OpacityMaskFilter_5_" filterUnits="userSpaceOnUse" x="529.741" y="97.299" width="7.26" height="11.209">
						<feColorMatrix  type="matrix" values="1 0 0 0 0  0 1 0 0 0  0 0 1 0 0  0 0 0 1 0"/>
					</filter>
				</defs>
				<mask maskUnits="userSpaceOnUse" x="529.741" y="97.299" width="7.26" height="11.209" id="SVGID_61_">
					<g filter="url(#Adobe_OpacityMaskFilter_5_)">
						
							<radialGradient id="SVGID_62_" cx="5.3386" cy="302.5972" r="0.0789" gradientTransform="matrix(60.3218 0 0 -60.3218 211.3826 18356.1309)" gradientUnits="userSpaceOnUse">
							<stop  offset="0" style="stop-color:#FFFFFF"/>
							<stop  offset="0.4588" style="stop-color:#FFFFFF"/>
							<stop  offset="0.5564" style="stop-color:#FCFCFC"/>
							<stop  offset="0.6282" style="stop-color:#F3F3F3"/>
							<stop  offset="0.6916" style="stop-color:#E3E3E3"/>
							<stop  offset="0.7503" style="stop-color:#CCCCCC"/>
							<stop  offset="0.8057" style="stop-color:#AFAFAF"/>
							<stop  offset="0.8586" style="stop-color:#8B8B8B"/>
							<stop  offset="0.9096" style="stop-color:#616161"/>
							<stop  offset="0.9578" style="stop-color:#313131"/>
							<stop  offset="1" style="stop-color:#000000"/>
						</radialGradient>
						<rect x="514.356" y="97.303" clip-path="url(#SVGID_60_)" fill="url(#SVGID_62_)" width="50.341" height="11.205"/>
					</g>
				</mask>
				
					<radialGradient id="SVGID_63_" cx="5.3372" cy="302.5981" r="0.079" gradientTransform="matrix(60.3218 0 0 -60.3218 211.3826 18356.1406)" gradientUnits="userSpaceOnUse">
					<stop  offset="0" style="stop-color:#FDBB5B"/>
					<stop  offset="0.4588" style="stop-color:#FDBB5B"/>
					<stop  offset="0.5745" style="stop-color:#FDBC5E"/>
					<stop  offset="0.6594" style="stop-color:#FDC067"/>
					<stop  offset="0.7346" style="stop-color:#FDC777"/>
					<stop  offset="0.804" style="stop-color:#FED08E"/>
					<stop  offset="0.8696" style="stop-color:#FEDCAB"/>
					<stop  offset="0.9322" style="stop-color:#FEEBCF"/>
					<stop  offset="0.9915" style="stop-color:#FFFCF8"/>
					<stop  offset="1" style="stop-color:#FFFFFF"/>
				</radialGradient>
				<path clip-path="url(#SVGID_60_)" mask="url(#SVGID_61_)" fill="url(#SVGID_63_)" d="M533.174,97.303L533.174,97.303
					c-2.053,0.079-2.802,1.973-2.802,1.973v-1.817l-0.631-0.018v11.067h0.612l0.042-4.576c0,0,0.496,1.814,2.976,1.814
					c0.017,0,0.036-0.001,0.052-0.001c1.83-0.021,2.419-0.868,2.419-0.868s1.159-0.967,1.159-3.154c0-3.052-1.682-4.425-3.66-4.425
					C533.286,97.299,533.228,97.3,533.174,97.303L533.174,97.303L533.174,97.303c0.054-0.003,0.112-0.004,0.167-0.004
					c1.979,0,3.66,1.373,3.66,4.425c0,2.188-1.159,3.154-1.159,3.154s-0.589,0.847-2.419,0.868c-0.016,0-0.035,0.001-0.052,0.001
					c-2.479,0-2.976-1.814-2.976-1.814l-0.042,4.576h-0.612V97.441l0.631,0.018v1.817C530.372,99.276,531.121,97.382,533.174,97.303
					L533.174,97.303z M533.272,105.173L533.272,105.173c0,0-0.083,0.013-0.227,0.013c-0.679,0-2.658-0.283-2.673-3.581
					c0-0.015,0-0.028,0-0.041c0-3.492,2.323-3.692,3.031-3.692c0.09,0,0.153,0.004,0.185,0.004c0.254,0,2.761,0.154,2.761,3.719
					c0,0.043,0,0.084,0,0.129c-0.051,3.268-2.429,3.453-2.969,3.453C533.312,105.177,533.272,105.173,533.272,105.173
					L533.272,105.173L533.272,105.173c0,0,0.04,0.004,0.108,0.004c0.54,0,2.918-0.186,2.969-3.453c0-0.044,0-0.086,0-0.129
					c0-3.565-2.507-3.719-2.761-3.719c-0.031,0-0.095-0.004-0.185-0.004c-0.708,0-3.031,0.201-3.031,3.692c0,0.013,0,0.026,0,0.041
					c0.015,3.298,1.994,3.581,2.673,3.581C533.189,105.186,533.272,105.173,533.272,105.173L533.272,105.173z"/>
				<path clip-path="url(#SVGID_60_)" fill="#FDBB5B" d="M538.289,97.378H539l-0.015,1.62c0,0,0.133-0.647,1.12-1.225
					c0.985-0.577,2.024-0.46,2.024-0.46l-0.012,0.645c0,0-1.086-0.173-1.937,0.514c-1.103,0.891-1.182,1.906-1.182,1.906v5.076
					h-0.685L538.289,97.378z"/>
				<defs>
					<filter id="Adobe_OpacityMaskFilter_6_" filterUnits="userSpaceOnUse" x="538.289" y="97.303" width="3.841" height="8.15">
						<feColorMatrix  type="matrix" values="1 0 0 0 0  0 1 0 0 0  0 0 1 0 0  0 0 0 1 0"/>
					</filter>
				</defs>
				<mask maskUnits="userSpaceOnUse" x="538.289" y="97.303" width="3.841" height="8.15" id="SVGID_64_">
					<g filter="url(#Adobe_OpacityMaskFilter_6_)">
						
							<radialGradient id="SVGID_65_" cx="5.6907" cy="303.1616" r="0.0789" gradientTransform="matrix(40.8425 0 0 -40.8425 307.7642 12483.3164)" gradientUnits="userSpaceOnUse">
							<stop  offset="0" style="stop-color:#FFFFFF"/>
							<stop  offset="0.4588" style="stop-color:#FFFFFF"/>
							<stop  offset="0.5564" style="stop-color:#FCFCFC"/>
							<stop  offset="0.6282" style="stop-color:#F3F3F3"/>
							<stop  offset="0.6916" style="stop-color:#E3E3E3"/>
							<stop  offset="0.7503" style="stop-color:#CCCCCC"/>
							<stop  offset="0.8057" style="stop-color:#AFAFAF"/>
							<stop  offset="0.8586" style="stop-color:#8B8B8B"/>
							<stop  offset="0.9096" style="stop-color:#616161"/>
							<stop  offset="0.9578" style="stop-color:#313131"/>
							<stop  offset="1" style="stop-color:#000000"/>
						</radialGradient>
						<rect x="514.356" y="97.303" clip-path="url(#SVGID_60_)" fill="url(#SVGID_65_)" width="50.341" height="11.205"/>
					</g>
				</mask>
				
					<radialGradient id="SVGID_66_" cx="5.6912" cy="303.1636" r="0.0788" gradientTransform="matrix(40.8425 0 0 -40.8425 307.7642 12483.3066)" gradientUnits="userSpaceOnUse">
					<stop  offset="0" style="stop-color:#FDBB5B"/>
					<stop  offset="0.4588" style="stop-color:#FDBB5B"/>
					<stop  offset="0.5745" style="stop-color:#FDBC5E"/>
					<stop  offset="0.6594" style="stop-color:#FDC067"/>
					<stop  offset="0.7346" style="stop-color:#FDC777"/>
					<stop  offset="0.804" style="stop-color:#FED08E"/>
					<stop  offset="0.8696" style="stop-color:#FEDCAB"/>
					<stop  offset="0.9322" style="stop-color:#FEEBCF"/>
					<stop  offset="0.9915" style="stop-color:#FFFCF8"/>
					<stop  offset="1" style="stop-color:#FFFFFF"/>
				</radialGradient>
				<path clip-path="url(#SVGID_60_)" mask="url(#SVGID_64_)" fill="url(#SVGID_66_)" d="M538.289,97.378L538.289,97.378H539
					l-0.015,1.62c0,0,0.133-0.647,1.12-1.225c0.699-0.41,1.424-0.469,1.787-0.469c0.148,0,0.237,0.009,0.237,0.009l-0.012,0.645
					c0,0-0.125-0.021-0.319-0.021c-0.386,0-1.052,0.08-1.617,0.536c-1.103,0.891-1.183,1.906-1.182,1.906v5.076h-0.685
					L538.289,97.378L538.289,97.378L538.289,97.378l0.026,8.076H539v-5.076c0,0,0.079-1.015,1.182-1.906
					c0.565-0.456,1.231-0.536,1.617-0.536c0.194,0,0.319,0.021,0.319,0.021l0.012-0.645c0,0-0.089-0.009-0.237-0.009
					c-0.363,0-1.088,0.06-1.787,0.469c-0.987,0.578-1.12,1.225-1.12,1.225l0.015-1.62H538.289L538.289,97.378z"/>
				<path clip-path="url(#SVGID_60_)" fill="#FDBB5B" d="M556.137,99.919l0.612,0.041c0,0,0.031-1.183-0.745-1.894
					c-0.775-0.711-2.367-0.763-2.367-0.763s-2.826,0.052-2.888,1.947c-0.053,1.754,1.481,2.091,2.191,2.288
					c0.711,0.198,2.221,0.528,2.221,0.528s1.244,0.548,1.159,1.576c-0.13,1.577-1.604,1.543-2.447,1.551
					c-2.29,0.025-2.708-1.656-2.708-1.656l-0.078-0.58h-0.658c0,0,0.203,1.563,0.92,2.105c0.921,0.697,2.078,0.788,2.814,0.737
					c1.477-0.106,2.105-0.369,2.445-0.975c0.286-0.5,0.658-2.024-0.196-2.736c-0.856-0.708-0.617-0.309-1.678-0.729
					c-1.061-0.419-3.354-0.216-3.354-1.896c0-1.123,0.968-1.538,2.309-1.596C556.197,97.968,556.137,99.919,556.137,99.919"/>
				<defs>
					<filter id="Adobe_OpacityMaskFilter_7_" filterUnits="userSpaceOnUse" x="550.429" y="97.303" width="6.514" height="8.506">
						<feColorMatrix  type="matrix" values="1 0 0 0 0  0 1 0 0 0  0 0 1 0 0  0 0 0 1 0"/>
					</filter>
				</defs>
				<mask maskUnits="userSpaceOnUse" x="550.429" y="97.303" width="6.514" height="8.506" id="SVGID_67_">
					<g filter="url(#Adobe_OpacityMaskFilter_7_)">
						
							<radialGradient id="SVGID_68_" cx="1.6287" cy="302.7847" r="0.0791" gradientTransform="matrix(48.5166 0 0 -48.5166 474.6828 14791.6074)" gradientUnits="userSpaceOnUse">
							<stop  offset="0" style="stop-color:#FFFFFF"/>
							<stop  offset="0.4588" style="stop-color:#FFFFFF"/>
							<stop  offset="0.5564" style="stop-color:#FCFCFC"/>
							<stop  offset="0.6282" style="stop-color:#F3F3F3"/>
							<stop  offset="0.6916" style="stop-color:#E3E3E3"/>
							<stop  offset="0.7503" style="stop-color:#CCCCCC"/>
							<stop  offset="0.8057" style="stop-color:#AFAFAF"/>
							<stop  offset="0.8586" style="stop-color:#8B8B8B"/>
							<stop  offset="0.9096" style="stop-color:#616161"/>
							<stop  offset="0.9578" style="stop-color:#313131"/>
							<stop  offset="1" style="stop-color:#000000"/>
						</radialGradient>
						<rect x="514.356" y="97.303" clip-path="url(#SVGID_60_)" fill="url(#SVGID_68_)" width="50.341" height="11.205"/>
					</g>
				</mask>
				
					<radialGradient id="SVGID_69_" cx="1.6292" cy="302.7847" r="0.0789" gradientTransform="matrix(48.5166 0 0 -48.5166 474.6827 14791.6211)" gradientUnits="userSpaceOnUse">
					<stop  offset="0" style="stop-color:#FDBB5B"/>
					<stop  offset="0.4588" style="stop-color:#FDBB5B"/>
					<stop  offset="0.5745" style="stop-color:#FDBC5E"/>
					<stop  offset="0.6594" style="stop-color:#FDC067"/>
					<stop  offset="0.7346" style="stop-color:#FDC777"/>
					<stop  offset="0.804" style="stop-color:#FED08E"/>
					<stop  offset="0.8696" style="stop-color:#FEDCAB"/>
					<stop  offset="0.9322" style="stop-color:#FEEBCF"/>
					<stop  offset="0.9915" style="stop-color:#FFFCF8"/>
					<stop  offset="1" style="stop-color:#FFFFFF"/>
				</radialGradient>
				<path clip-path="url(#SVGID_60_)" mask="url(#SVGID_67_)" fill="url(#SVGID_69_)" d="M556.137,99.919L556.137,99.919
					l0.612,0.041c0,0,0-0.007,0-0.021c0-0.161-0.028-1.217-0.745-1.873c-0.775-0.711-2.367-0.763-2.367-0.763
					s-2.826,0.052-2.888,1.947c0,0.03,0,0.06,0,0.091c0,1.676,1.491,2.003,2.191,2.197c0.711,0.198,2.221,0.528,2.221,0.528
					s1.164,0.512,1.164,1.477c0,0.033-0.001,0.065-0.005,0.1c-0.13,1.577-1.604,1.543-2.447,1.551c-0.016,0-0.036,0-0.052,0
					c-2.243,0-2.656-1.656-2.656-1.656l-0.078-0.58h-0.658c0,0,0.203,1.563,0.92,2.105c0.784,0.595,1.743,0.746,2.465,0.746
					c0.124,0,0.241-0.002,0.35-0.009c1.477-0.106,2.105-0.369,2.445-0.975c0.152-0.268,0.334-0.834,0.334-1.41
					c0-0.496-0.133-0.996-0.53-1.326c-0.856-0.708-0.617-0.309-1.678-0.729c-1.061-0.419-3.354-0.216-3.354-1.896
					c0-1.123,0.968-1.538,2.309-1.596c2.393,0.095,2.448,1.878,2.448,2.038C556.137,99.917,556.137,99.919,556.137,99.919
					L556.137,99.919L556.137,99.919c0,0,0-0.002,0-0.012c0-0.16-0.056-1.943-2.448-2.038c-1.341,0.059-2.309,0.473-2.309,1.596
					c0,1.68,2.294,1.477,3.354,1.896c1.061,0.42,0.821,0.02,1.678,0.729c0.397,0.331,0.53,0.831,0.53,1.326
					c0,0.575-0.182,1.142-0.334,1.41c-0.34,0.606-0.969,0.868-2.445,0.975c-0.108,0.007-0.226,0.009-0.35,0.009
					c-0.722,0-1.681-0.151-2.465-0.746c-0.717-0.542-0.92-2.105-0.92-2.105h0.658l0.078,0.58c0,0,0.413,1.656,2.656,1.656
					c0.016,0,0.036,0,0.052,0c0.844-0.008,2.317,0.025,2.447-1.551c0.004-0.034,0.005-0.066,0.005-0.1
					c0-0.965-1.164-1.477-1.164-1.477s-1.51-0.33-2.221-0.528c-0.7-0.193-2.191-0.521-2.191-2.197c0-0.031,0-0.062,0-0.091
					c0.062-1.895,2.888-1.947,2.888-1.947s1.592,0.052,2.367,0.763c0.717,0.655,0.745,1.711,0.745,1.873c0,0.014,0,0.021,0,0.021
					L556.137,99.919L556.137,99.919z"/>
				<path clip-path="url(#SVGID_60_)" fill="#FDBB5B" d="M563.595,99.919l0.609,0.041c0,0,0.034-1.183-0.742-1.894
					c-0.774-0.711-2.367-0.763-2.367-0.763s-2.828,0.052-2.888,1.947c-0.054,1.754,1.479,2.091,2.188,2.288
					c0.711,0.198,2.226,0.528,2.226,0.528s1.242,0.548,1.155,1.576c-0.13,1.577-1.602,1.543-2.446,1.551
					c-2.287,0.025-2.709-1.656-2.709-1.656l-0.078-0.58h-0.658c0,0,0.207,1.563,0.921,2.105c0.921,0.697,2.077,0.788,2.813,0.737
					c1.477-0.106,2.105-0.369,2.448-0.975c0.283-0.5,0.658-2.024-0.198-2.736c-0.853-0.708-0.615-0.309-1.676-0.729
					c-1.06-0.419-3.354-0.216-3.354-1.896c0-1.123,0.967-1.538,2.309-1.596C563.652,97.968,563.595,99.919,563.595,99.919"/>
				<defs>
					<filter id="Adobe_OpacityMaskFilter_8_" filterUnits="userSpaceOnUse" x="557.884" y="97.303" width="6.513" height="8.506">
						<feColorMatrix  type="matrix" values="1 0 0 0 0  0 1 0 0 0  0 0 1 0 0  0 0 0 1 0"/>
					</filter>
				</defs>
				<mask maskUnits="userSpaceOnUse" x="557.884" y="97.303" width="6.513" height="8.506" id="SVGID_70_">
					<g filter="url(#Adobe_OpacityMaskFilter_8_)">
						
							<radialGradient id="SVGID_71_" cx="-0.1648" cy="302.7847" r="0.0789" gradientTransform="matrix(48.5166 0 0 -48.5166 569.1828 14791.6074)" gradientUnits="userSpaceOnUse">
							<stop  offset="0" style="stop-color:#FFFFFF"/>
							<stop  offset="0.4588" style="stop-color:#FFFFFF"/>
							<stop  offset="0.5564" style="stop-color:#FCFCFC"/>
							<stop  offset="0.6282" style="stop-color:#F3F3F3"/>
							<stop  offset="0.6916" style="stop-color:#E3E3E3"/>
							<stop  offset="0.7503" style="stop-color:#CCCCCC"/>
							<stop  offset="0.8057" style="stop-color:#AFAFAF"/>
							<stop  offset="0.8586" style="stop-color:#8B8B8B"/>
							<stop  offset="0.9096" style="stop-color:#616161"/>
							<stop  offset="0.9578" style="stop-color:#313131"/>
							<stop  offset="1" style="stop-color:#000000"/>
						</radialGradient>
						<rect x="514.356" y="97.303" clip-path="url(#SVGID_60_)" fill="url(#SVGID_71_)" width="50.341" height="11.205"/>
					</g>
				</mask>
				
					<radialGradient id="SVGID_72_" cx="-0.1658" cy="302.7847" r="0.0791" gradientTransform="matrix(48.5166 0 0 -48.5166 569.1827 14791.6211)" gradientUnits="userSpaceOnUse">
					<stop  offset="0" style="stop-color:#FDBB5B"/>
					<stop  offset="0.4588" style="stop-color:#FDBB5B"/>
					<stop  offset="0.5745" style="stop-color:#FDBC5E"/>
					<stop  offset="0.6594" style="stop-color:#FDC067"/>
					<stop  offset="0.7346" style="stop-color:#FDC777"/>
					<stop  offset="0.804" style="stop-color:#FED08E"/>
					<stop  offset="0.8696" style="stop-color:#FEDCAB"/>
					<stop  offset="0.9322" style="stop-color:#FEEBCF"/>
					<stop  offset="0.9915" style="stop-color:#FFFCF8"/>
					<stop  offset="1" style="stop-color:#FFFFFF"/>
				</radialGradient>
				<path clip-path="url(#SVGID_60_)" mask="url(#SVGID_70_)" fill="url(#SVGID_72_)" d="M563.595,99.919L563.595,99.919
					l0.609,0.041c0,0,0-0.007,0-0.021c0-0.161-0.029-1.217-0.742-1.873c-0.774-0.711-2.367-0.763-2.367-0.763
					s-2.828,0.052-2.888,1.947c-0.002,0.03-0.002,0.06-0.002,0.091c0,1.676,1.495,2.003,2.189,2.197
					c0.711,0.198,2.226,0.528,2.226,0.528s1.159,0.512,1.159,1.477c0,0.033,0,0.065-0.004,0.1c-0.13,1.577-1.602,1.543-2.446,1.551
					c-0.018,0-0.033,0-0.053,0c-2.24,0-2.656-1.656-2.656-1.656l-0.078-0.58h-0.658c0,0,0.207,1.563,0.921,2.105
					c0.784,0.595,1.741,0.746,2.465,0.746c0.124,0,0.242-0.002,0.349-0.009c1.477-0.106,2.105-0.369,2.448-0.975
					c0.149-0.268,0.33-0.834,0.33-1.41c0-0.496-0.133-0.996-0.528-1.326c-0.853-0.708-0.615-0.309-1.676-0.729
					c-1.06-0.419-3.354-0.216-3.354-1.896c0-1.123,0.967-1.538,2.309-1.596c2.391,0.095,2.447,1.878,2.447,2.038
					C563.595,99.917,563.595,99.919,563.595,99.919L563.595,99.919L563.595,99.919c0,0,0-0.002,0-0.012
					c0-0.16-0.057-1.943-2.447-2.038c-1.342,0.059-2.309,0.473-2.309,1.596c0,1.68,2.294,1.477,3.354,1.896
					c1.061,0.42,0.823,0.02,1.676,0.729c0.396,0.331,0.528,0.831,0.528,1.326c0,0.575-0.181,1.142-0.33,1.41
					c-0.343,0.606-0.972,0.868-2.448,0.975c-0.106,0.007-0.225,0.009-0.349,0.009c-0.724,0-1.681-0.151-2.465-0.746
					c-0.714-0.542-0.921-2.105-0.921-2.105h0.658l0.078,0.58c0,0,0.416,1.656,2.656,1.656c0.02,0,0.035,0,0.053,0
					c0.845-0.008,2.316,0.025,2.446-1.551c0.004-0.034,0.004-0.066,0.004-0.1c0-0.965-1.159-1.477-1.159-1.477
					s-1.515-0.33-2.226-0.528c-0.694-0.193-2.189-0.521-2.189-2.197c0-0.031,0-0.062,0.002-0.091
					c0.06-1.895,2.888-1.947,2.888-1.947s1.593,0.052,2.367,0.763c0.713,0.655,0.742,1.711,0.742,1.873c0,0.014,0,0.021,0,0.021
					L563.595,99.919L563.595,99.919z"/>
				<path clip-path="url(#SVGID_60_)" fill="#FDBB5B" d="M521.561,101.67c0,0,0.118-0.29-0.197-1.895
					c-0.24-0.741-0.569-1.303-0.998-1.672c-0.744-0.636-1.83-0.8-2.194-0.8c-0.595,0-1.459,0.053-2.135,0.551
					c-0.604,0.447-0.954,0.823-1.223,1.513c-0.345,0.888-0.368,2.066-0.368,2.066s-0.132,2.064,0.777,3.102
					c0.906,1.039,2.024,1.237,2.785,1.237c0.765,0,1.856-0.224,2.449-0.814c0.592-0.591,0.632-0.737,0.841-1.234
					c0.212-0.503,0.172-0.869,0.172-0.869h-0.593c0,0-0.295,1.366-1.133,1.814c-0.832,0.446-1.305,0.515-1.801,0.525
					c-0.464,0.009-1.565-0.303-2.249-1.183c-0.684-0.881-0.628-2.353-0.628-2.353L521.561,101.67z M515.011,101.088
					c0,0,0.056-1.47,0.96-2.364c1.029-1.013,2.08-0.881,2.08-0.881s1.246-0.012,2.052,0.919c0.804,0.934,0.801,2.326,0.801,2.326
					H515.011z"/>
				<defs>
					<filter id="Adobe_OpacityMaskFilter_9_" filterUnits="userSpaceOnUse" x="514.44" y="97.303" width="7.144" height="8.469">
						<feColorMatrix  type="matrix" values="1 0 0 0 0  0 1 0 0 0  0 0 1 0 0  0 0 0 1 0"/>
					</filter>
				</defs>
				<mask maskUnits="userSpaceOnUse" x="514.44" y="97.303" width="7.144" height="8.469" id="SVGID_73_">
					<g filter="url(#Adobe_OpacityMaskFilter_9_)">
						
							<radialGradient id="SVGID_74_" cx="9.8962" cy="302.7065" r="0.0789" gradientTransform="matrix(50.1415 0 0 -50.1415 21.809 15279.6406)" gradientUnits="userSpaceOnUse">
							<stop  offset="0" style="stop-color:#FFFFFF"/>
							<stop  offset="0.4588" style="stop-color:#FFFFFF"/>
							<stop  offset="0.5564" style="stop-color:#FCFCFC"/>
							<stop  offset="0.6282" style="stop-color:#F3F3F3"/>
							<stop  offset="0.6916" style="stop-color:#E3E3E3"/>
							<stop  offset="0.7503" style="stop-color:#CCCCCC"/>
							<stop  offset="0.8057" style="stop-color:#AFAFAF"/>
							<stop  offset="0.8586" style="stop-color:#8B8B8B"/>
							<stop  offset="0.9096" style="stop-color:#616161"/>
							<stop  offset="0.9578" style="stop-color:#313131"/>
							<stop  offset="1" style="stop-color:#000000"/>
						</radialGradient>
						<rect x="514.356" y="97.303" clip-path="url(#SVGID_60_)" fill="url(#SVGID_74_)" width="50.341" height="11.205"/>
					</g>
				</mask>
				
					<radialGradient id="SVGID_75_" cx="9.8958" cy="302.7046" r="0.0793" gradientTransform="matrix(50.1415 0 0 -50.1415 21.809 15279.6523)" gradientUnits="userSpaceOnUse">
					<stop  offset="0" style="stop-color:#FDBB5B"/>
					<stop  offset="0.4588" style="stop-color:#FDBB5B"/>
					<stop  offset="0.5745" style="stop-color:#FDBC5E"/>
					<stop  offset="0.6594" style="stop-color:#FDC067"/>
					<stop  offset="0.7346" style="stop-color:#FDC777"/>
					<stop  offset="0.804" style="stop-color:#FED08E"/>
					<stop  offset="0.8696" style="stop-color:#FEDCAB"/>
					<stop  offset="0.9322" style="stop-color:#FEEBCF"/>
					<stop  offset="0.9915" style="stop-color:#FFFCF8"/>
					<stop  offset="1" style="stop-color:#FFFFFF"/>
				</radialGradient>
				<path clip-path="url(#SVGID_60_)" mask="url(#SVGID_73_)" fill="url(#SVGID_75_)" d="M521.561,101.67L521.561,101.67
					c0,0,0.022-0.054,0.022-0.241c0-0.249-0.039-0.736-0.22-1.653c-0.24-0.741-0.569-1.303-0.998-1.672
					c-0.744-0.636-1.83-0.8-2.194-0.8c-0.595,0-1.459,0.053-2.135,0.551c-0.604,0.447-0.954,0.823-1.223,1.513
					c-0.345,0.888-0.368,2.066-0.368,2.066s-0.006,0.104-0.006,0.276c0,0.599,0.077,2.021,0.783,2.826
					c0.905,1.039,2.024,1.237,2.785,1.237l0,0c0.765,0,1.856-0.224,2.449-0.814c0.592-0.591,0.632-0.737,0.841-1.234
					c0.15-0.366,0.174-0.659,0.174-0.794c0-0.049-0.002-0.075-0.002-0.075h-0.593c0,0-0.295,1.366-1.133,1.814
					c-0.832,0.446-1.305,0.515-1.801,0.525c-0.007,0-0.012,0-0.02,0c-0.476,0-1.557-0.315-2.229-1.183
					c-0.594-0.764-0.631-1.974-0.631-2.281c0-0.049,0.003-0.072,0.003-0.072L521.561,101.67L521.561,101.67L521.561,101.67
					l-6.494-0.013c0,0-0.003,0.023-0.003,0.072c0,0.307,0.037,1.517,0.631,2.281c0.673,0.868,1.754,1.183,2.229,1.183
					c0.008,0,0.013,0,0.02,0c0.496-0.01,0.969-0.079,1.801-0.525c0.838-0.449,1.133-1.814,1.133-1.814h0.593
					c0,0,0.002,0.026,0.002,0.075c0,0.135-0.023,0.428-0.174,0.794c-0.209,0.497-0.249,0.643-0.841,1.234
					c-0.593,0.591-1.685,0.814-2.449,0.814l0,0c-0.761,0-1.88-0.198-2.785-1.237c-0.706-0.805-0.783-2.227-0.783-2.826
					c0-0.173,0.006-0.276,0.006-0.276s0.023-1.179,0.368-2.066c0.269-0.689,0.619-1.065,1.223-1.513
					c0.676-0.498,1.54-0.551,2.135-0.551c0.364,0,1.45,0.165,2.194,0.8c0.429,0.369,0.758,0.932,0.998,1.672
					c0.181,0.917,0.22,1.404,0.22,1.653C521.583,101.616,521.561,101.67,521.561,101.67L521.561,101.67z M515.011,101.088
					L515.011,101.088c0,0,0.056-1.47,0.96-2.364c0.815-0.805,1.645-0.887,1.953-0.887c0.08,0,0.127,0.006,0.127,0.006s0,0,0.002,0
					c0.056,0,1.264,0.008,2.05,0.919c0.797,0.929,0.801,2.312,0.801,2.326l0,0H515.011L515.011,101.088L515.011,101.088h5.893l0,0
					c0-0.013-0.004-1.397-0.801-2.326c-0.786-0.912-1.994-0.919-2.05-0.919c-0.002,0-0.002,0-0.002,0s-0.047-0.006-0.127-0.006
					c-0.309,0-1.138,0.083-1.953,0.887C515.067,99.618,515.011,101.088,515.011,101.088L515.011,101.088z"/>
				<path clip-path="url(#SVGID_60_)" fill="#FDBB5B" d="M549.415,101.67c0,0,0.12-0.29-0.197-1.895
					c-0.24-0.741-0.572-1.303-0.998-1.672c-0.746-0.636-1.832-0.8-2.198-0.8c-0.59,0-1.454,0.053-2.132,0.551
					c-0.604,0.447-0.952,0.823-1.219,1.513c-0.348,0.888-0.371,2.066-0.371,2.066s-0.13,2.064,0.776,3.102
					c0.907,1.039,2.024,1.237,2.788,1.237c0.762,0,1.855-0.224,2.448-0.814c0.589-0.591,0.631-0.737,0.843-1.234
					c0.207-0.503,0.167-0.869,0.167-0.869h-0.594c0,0-0.292,1.366-1.128,1.814c-0.835,0.446-1.306,0.515-1.803,0.525
					c-0.464,0.009-1.564-0.303-2.246-1.183c-0.685-0.881-0.634-2.353-0.634-2.353L549.415,101.67z M542.867,101.088
					c0,0,0.051-1.47,0.96-2.364c1.024-1.013,2.078-0.881,2.078-0.881s1.248-0.012,2.051,0.919c0.805,0.934,0.803,2.326,0.803,2.326
					H542.867z"/>
				<defs>
					<filter id="Adobe_OpacityMaskFilter_10_" filterUnits="userSpaceOnUse" x="542.295" y="97.303" width="7.143" height="8.469">
						<feColorMatrix  type="matrix" values="1 0 0 0 0  0 1 0 0 0  0 0 1 0 0  0 0 0 1 0"/>
					</filter>
				</defs>
				<mask maskUnits="userSpaceOnUse" x="542.295" y="97.303" width="7.143" height="8.469" id="SVGID_76_">
					<g filter="url(#Adobe_OpacityMaskFilter_10_)">
						
							<radialGradient id="SVGID_77_" cx="3.4114" cy="302.7046" r="0.0789" gradientTransform="matrix(50.1417 0 0 -50.1417 374.8089 15279.707)" gradientUnits="userSpaceOnUse">
							<stop  offset="0" style="stop-color:#FFFFFF"/>
							<stop  offset="0.4588" style="stop-color:#FFFFFF"/>
							<stop  offset="0.5564" style="stop-color:#FCFCFC"/>
							<stop  offset="0.6282" style="stop-color:#F3F3F3"/>
							<stop  offset="0.6916" style="stop-color:#E3E3E3"/>
							<stop  offset="0.7503" style="stop-color:#CCCCCC"/>
							<stop  offset="0.8057" style="stop-color:#AFAFAF"/>
							<stop  offset="0.8586" style="stop-color:#8B8B8B"/>
							<stop  offset="0.9096" style="stop-color:#616161"/>
							<stop  offset="0.9578" style="stop-color:#313131"/>
							<stop  offset="1" style="stop-color:#000000"/>
						</radialGradient>
						<rect x="514.356" y="97.303" clip-path="url(#SVGID_60_)" fill="url(#SVGID_77_)" width="50.341" height="11.205"/>
					</g>
				</mask>
				
					<radialGradient id="SVGID_78_" cx="3.4114" cy="302.7046" r="0.0792" gradientTransform="matrix(50.1417 0 0 -50.1417 374.8089 15279.7129)" gradientUnits="userSpaceOnUse">
					<stop  offset="0" style="stop-color:#FDBB5B"/>
					<stop  offset="0.4588" style="stop-color:#FDBB5B"/>
					<stop  offset="0.5745" style="stop-color:#FDBC5E"/>
					<stop  offset="0.6594" style="stop-color:#FDC067"/>
					<stop  offset="0.7346" style="stop-color:#FDC777"/>
					<stop  offset="0.804" style="stop-color:#FED08E"/>
					<stop  offset="0.8696" style="stop-color:#FEDCAB"/>
					<stop  offset="0.9322" style="stop-color:#FEEBCF"/>
					<stop  offset="0.9915" style="stop-color:#FFFCF8"/>
					<stop  offset="1" style="stop-color:#FFFFFF"/>
				</radialGradient>
				<path clip-path="url(#SVGID_60_)" mask="url(#SVGID_76_)" fill="url(#SVGID_78_)" d="M549.415,101.67L549.415,101.67
					c0,0,0.022-0.054,0.022-0.241c0-0.249-0.038-0.736-0.22-1.653c-0.24-0.741-0.572-1.303-0.998-1.672
					c-0.746-0.636-1.832-0.8-2.198-0.8c-0.59,0-1.454,0.053-2.132,0.551c-0.604,0.447-0.952,0.823-1.219,1.513
					c-0.348,0.888-0.371,2.066-0.371,2.066s-0.005,0.104-0.005,0.276c0,0.601,0.077,2.021,0.781,2.826
					c0.907,1.039,2.024,1.237,2.788,1.237l0,0c0.762,0,1.855-0.224,2.448-0.814c0.589-0.591,0.631-0.737,0.843-1.234
					c0.148-0.366,0.171-0.659,0.171-0.794c0-0.049-0.004-0.075-0.004-0.075h-0.594c0,0-0.292,1.366-1.128,1.814
					c-0.835,0.446-1.306,0.515-1.803,0.525c-0.007,0-0.014,0-0.021,0c-0.475,0-1.555-0.315-2.226-1.183
					c-0.594-0.764-0.635-1.974-0.635-2.281c0-0.049,0.001-0.072,0.001-0.072L549.415,101.67L549.415,101.67L549.415,101.67
					l-6.497-0.013c0,0-0.001,0.023-0.001,0.072c0,0.307,0.041,1.517,0.635,2.281c0.671,0.868,1.751,1.183,2.226,1.183
					c0.007,0,0.014,0,0.021,0c0.497-0.01,0.968-0.079,1.803-0.525c0.836-0.449,1.128-1.814,1.128-1.814h0.594
					c0,0,0.004,0.026,0.004,0.075c0,0.135-0.022,0.428-0.171,0.794c-0.212,0.497-0.254,0.643-0.843,1.234
					c-0.593,0.591-1.687,0.814-2.448,0.814l0,0c-0.764,0-1.881-0.198-2.788-1.237c-0.704-0.805-0.781-2.225-0.781-2.826
					c0-0.173,0.005-0.276,0.005-0.276s0.023-1.179,0.371-2.066c0.267-0.689,0.615-1.065,1.219-1.513
					c0.678-0.498,1.542-0.551,2.132-0.551c0.366,0,1.452,0.165,2.198,0.8c0.426,0.369,0.758,0.932,0.998,1.672
					c0.182,0.917,0.22,1.404,0.22,1.653C549.438,101.616,549.415,101.67,549.415,101.67L549.415,101.67z M542.867,101.088
					L542.867,101.088c0,0,0.051-1.47,0.96-2.364c0.812-0.805,1.645-0.887,1.952-0.887c0.081,0,0.126,0.006,0.126,0.006
					s0.001,0,0.002,0c0.058,0,1.264,0.008,2.049,0.919c0.801,0.929,0.803,2.312,0.803,2.326l0,0H542.867L542.867,101.088
					L542.867,101.088h5.892l0,0c0-0.013-0.002-1.397-0.803-2.326c-0.785-0.912-1.991-0.919-2.049-0.919c-0.001,0-0.002,0-0.002,0
					s-0.045-0.006-0.126-0.006c-0.308,0-1.14,0.083-1.952,0.887C542.918,99.618,542.867,101.088,542.867,101.088L542.867,101.088z"
					/>
			</g>
		</g>
	</g>
</g>
<path fill="none" stroke="#FEBC5B" stroke-width="4.4784" stroke-miterlimit="10" d="M539.517,73.143
	c15.612,0,28.275,12.654,28.275,28.27c0,15.614-12.657,28.272-28.275,28.272c-15.612,0-28.272-12.662-28.272-28.272
	C511.244,85.803,523.901,73.143,539.517,73.143z"/>
</svg>
